<svg width="25" height="24" viewBox="0 0 25 24" fill="none" xmlns="http://www.w3.org/2000/svg">
<path d="M17.1666 3C20.2042 3 22.6666 5.5 22.6666 9C22.6666 16 15.1666 20 12.6666 21.5C10.6892 20.3135 5.58362 17.563 3.53557 13.001L1.66663 13V11L2.87708 11.0009C2.74088 10.3633 2.66663 9.69651 2.66663 9C2.66663 5.5 5.16663 3 8.16663 3C10.0266 3 11.6666 4 12.6666 5C13.6666 4 15.3066 3 17.1666 3ZM17.1666 5C16.0907 5 14.9259 5.56911 14.0808 6.41421L12.6666 7.82843L11.2524 6.41421C10.4073 5.56911 9.24253 5 8.16663 5C6.22569 5 4.66663 6.6565 4.66663 9C4.66663 9.68542 4.75698 10.3516 4.93321 11.0004L7.10044 11L9.16663 7.55635L12.1666 12.5563L13.1004 11H17.6666V13H14.2328L12.1666 16.4437L9.16663 11.4437L8.23282 13L5.77452 13.0006C6.5639 14.3737 7.75967 15.6681 9.31177 16.9029C10.0566 17.4955 10.8511 18.0485 11.7327 18.6038C12.0312 18.7919 12.3277 18.9729 12.6666 19.1752C13.0055 18.9729 13.302 18.7919 13.6005 18.6038C14.4821 18.0485 15.2766 17.4955 16.0215 16.9029C19.0003 14.533 20.6666 11.9435 20.6666 9C20.6666 6.64076 19.1296 5 17.1666 5Z" fill="#C42A57"/>
</svg>
