<svg width="25" height="24" viewBox="0 0 25 24" fill="none" xmlns="http://www.w3.org/2000/svg">
<path d="M19.6666 18.9999V9.79863L12.6666 4.27663L5.66663 9.79863V18.9999H19.6666ZM21.6666 19.9999C21.6666 20.5522 21.2189 20.9999 20.6666 20.9999H4.66663C4.11435 20.9999 3.66663 20.5522 3.66663 19.9999V9.31379C3.66663 9.00761 3.8069 8.71831 4.04728 8.52867L12.0473 2.21781C12.4104 1.9313 12.9228 1.9313 13.2859 2.21781L21.2859 8.52867C21.5263 8.71831 21.6666 9.00761 21.6666 9.31379V19.9999ZM7.66663 11.9999H9.66663C9.66663 13.6568 11.0097 14.9999 12.6666 14.9999C14.3235 14.9999 15.6666 13.6568 15.6666 11.9999H17.6666C17.6666 14.7613 15.428 16.9999 12.6666 16.9999C9.90521 16.9999 7.66663 14.7613 7.66663 11.9999Z" fill="#C42A57"/>
</svg>
