<svg width="25" height="24" viewBox="0 0 25 24" fill="none" xmlns="http://www.w3.org/2000/svg">
<path d="M20.3333 12C20.3333 7.58172 16.7516 4 12.3333 4C7.91503 4 4.33331 7.58172 4.33331 12C4.33331 16.4183 7.91503 20 12.3333 20C16.7516 20 20.3333 16.4183 20.3333 12ZM22.3333 12C22.3333 17.5228 17.8561 22 12.3333 22C6.81046 22 2.33331 17.5228 2.33331 12C2.33331 6.47715 6.81046 2 12.3333 2C17.8561 2 22.3333 6.47715 22.3333 12ZM13.8336 8C14.1611 8.43606 14.3958 8.94584 14.5083 9.5H16.3333V11H14.5083C14.1608 12.7117 12.6475 14 10.8333 14H10.644L14.3636 17.7197L13.303 18.7803L8.33331 13.8107V12.5H10.8333C11.813 12.5 12.6464 11.8739 12.9553 11H8.33331V9.5H12.9553C12.6464 8.62611 11.813 8 10.8333 8H8.33331V6.5H16.3333V8H13.8336Z" fill="#C42A57"/>
</svg>
