<svg width="25" height="24" viewBox="0 0 25 24" fill="none" xmlns="http://www.w3.org/2000/svg">
<path d="M7.58692 18.4944L8.31165 18.917C9.5224 19.623 10.8984 20 12.3343 20C16.7526 20 20.3343 16.4183 20.3343 12C20.3343 7.58172 16.7526 4 12.3343 4C7.91601 4 4.33429 7.58172 4.33429 12C4.33429 13.4363 4.71152 14.8128 5.41797 16.0238L5.84035 16.7478L5.18686 19.1494L7.58692 18.4944ZM2.33847 22L3.69043 17.0315C2.82825 15.5536 2.33429 13.8345 2.33429 12C2.33429 6.47715 6.81144 2 12.3343 2C17.8571 2 22.3343 6.47715 22.3343 12C22.3343 17.5228 17.8571 22 12.3343 22C10.5004 22 8.78182 21.5064 7.30417 20.6447L2.33847 22ZM8.72563 7.30833C8.85951 7.29892 8.99384 7.29748 9.1279 7.30402C9.18206 7.30758 9.23596 7.31384 9.2899 7.32007C9.44916 7.33846 9.62429 7.43545 9.68317 7.56894C9.98149 8.24536 10.2709 8.92565 10.5515 9.60963C10.6134 9.76062 10.5761 9.95633 10.4583 10.1457C10.3985 10.2428 10.3046 10.379 10.1958 10.5183C10.0827 10.663 9.8393 10.9291 9.8393 10.9291C9.8393 10.9291 9.74069 11.0473 9.77786 11.1944C9.79234 11.25 9.83852 11.331 9.88039 11.3991C9.90358 11.4368 9.92511 11.4705 9.93908 11.4938C10.195 11.9211 10.539 12.3543 10.9592 12.7616C11.0796 12.8783 11.1964 12.9974 11.322 13.108C11.7903 13.5209 12.3201 13.8583 12.8923 14.1082L12.8974 14.1105C12.9819 14.1469 13.0253 14.1668 13.149 14.2193C13.2114 14.2457 13.2752 14.2685 13.3407 14.2858C13.3644 14.292 13.3887 14.2955 13.4131 14.2972C13.5748 14.3069 13.6683 14.2032 13.7082 14.1555C14.4317 13.279 14.4979 13.2218 14.5029 13.2222V13.2238C14.598 13.1236 14.7475 13.0888 14.8809 13.097C14.9418 13.1007 15.0024 13.1124 15.0578 13.1377C15.5896 13.3803 16.4591 13.7587 16.4591 13.7587L17.0406 14.0201C17.138 14.0671 17.2269 14.1778 17.2312 14.2854C17.2338 14.3523 17.241 14.4603 17.2171 14.6579C17.1858 14.9166 17.1071 15.2281 17.0289 15.3913C16.9739 15.5058 16.9027 15.6074 16.8199 15.6934C16.7076 15.81 16.6242 15.8808 16.4892 15.9814C16.407 16.0426 16.3644 16.0714 16.3644 16.0714C16.2255 16.159 16.1472 16.2028 15.9817 16.2909C15.7243 16.428 15.4399 16.5068 15.1486 16.5218C14.9629 16.5313 14.7777 16.5447 14.5922 16.5347C14.584 16.5342 14.024 16.4482 14.024 16.4482C12.6021 16.0742 11.2871 15.3736 10.1836 14.402C9.95804 14.2034 9.74881 13.9885 9.53525 13.7759C8.64619 12.8908 7.97313 11.9364 7.565 11.0336C7.36374 10.5884 7.2363 10.1116 7.23429 9.62098C7.2306 9.01405 7.4293 8.4232 7.799 7.94186C7.87188 7.84697 7.94105 7.74855 8.0604 7.63586C8.18679 7.51651 8.26723 7.45244 8.35388 7.40811C8.46938 7.34902 8.59624 7.31742 8.72563 7.30833Z" fill="#C42A57"/>
</svg>
