<svg width="150" height="150" viewBox="0 0 150 150" fill="none" xmlns="http://www.w3.org/2000/svg">
<path d="M15.411 93.5637L17.211 94.4187C17.211 94.4187 17.931 92.9187 19.515 93.6267C19.8233 93.7589 20.0827 93.984 20.257 94.2706C20.4312 94.5573 20.5116 94.8912 20.487 95.2257C20.4694 95.5073 20.3858 95.7809 20.243 96.0242C20.1002 96.2676 19.9022 96.474 19.665 96.6267C19.122 96.9837 18.234 97.1247 17.121 96.3267L15.864 98.9697L17.649 99.8157L18.105 98.8557C18.9388 98.9879 19.7929 98.8426 20.536 98.4421C21.2791 98.0415 21.8701 97.4079 22.218 96.6387C23.469 94.0047 21.393 92.2707 20.382 91.7907C19.608 91.4307 16.884 90.3687 15.411 93.5637Z" fill="#E0E0E0"/>
<path d="M17.3468 100.521L15.539 99.6631L14.7379 101.352L16.5458 102.209L17.3468 100.521Z" fill="#E0E0E0"/>
<path d="M32.913 122.808L34.95 123.384C34.95 123.384 35.433 121.674 37.218 122.148C37.5633 122.232 37.8737 122.422 38.1061 122.691C38.3384 122.96 38.481 123.294 38.514 123.648C38.5478 123.944 38.511 124.244 38.4067 124.524C38.3024 124.803 38.1336 125.054 37.914 125.256C37.407 125.73 36.504 126.033 35.214 125.403L34.371 128.403L36.384 128.973L36.684 127.884C36.684 127.884 39.714 127.953 40.584 124.842C41.427 121.866 38.952 120.42 37.809 120.096C36.927 119.838 33.9 119.205 32.913 122.808Z" fill="#E0E0E0"/>
<path d="M36.1691 129.743L34.1252 129.165L33.5856 131.073L35.6295 131.651L36.1691 129.743Z" fill="#E0E0E0"/>
<path d="M118.29 58.584L120.243 58.62C121.39 59.9046 122.976 60.7138 124.689 60.8886C126.403 61.0635 128.119 60.5913 129.502 59.5649C130.885 58.5386 131.834 57.0321 132.163 55.3417C132.492 53.6512 132.176 51.8989 131.279 50.429C130.382 48.9591 128.967 47.8779 127.313 47.3978C125.659 46.9177 123.886 47.0735 122.341 47.8345C120.796 48.5954 119.591 49.9066 118.964 51.5104C118.337 53.1142 118.332 54.8947 118.95 56.502L118.29 58.584Z" fill="white"/>
<path d="M118.29 58.584C118.299 58.5391 118.311 58.495 118.326 58.452C118.352 58.356 118.391 58.224 118.443 58.056C118.554 57.693 118.71 57.156 118.917 56.487C118.918 56.4829 118.92 56.4792 118.922 56.4759C118.925 56.4726 118.928 56.4699 118.932 56.4679C118.936 56.4659 118.94 56.4647 118.944 56.4644C118.948 56.4641 118.952 56.4646 118.956 56.466C118.962 56.4639 118.968 56.4639 118.974 56.466L118.917 56.499C118.421 55.2193 118.314 53.8217 118.608 52.4812C118.903 51.1407 119.586 49.9169 120.573 48.963C121.319 48.2471 122.214 47.7058 123.195 47.3783C124.175 47.0507 125.216 46.9452 126.243 47.0692C127.269 47.1932 128.255 47.5437 129.129 48.0954C130.003 48.647 130.744 49.386 131.298 50.259C131.913 51.2254 132.279 52.3294 132.363 53.472C132.484 55.0085 132.092 56.5417 131.248 57.8315C130.405 59.1213 129.157 60.095 127.701 60.6C126.174 61.1272 124.513 61.1102 122.997 60.552C121.927 60.1557 120.972 59.4989 120.219 58.641H120.24L118.782 58.596H118.41H118.29H118.8H120.24C120.243 58.5944 120.247 58.5936 120.251 58.5936C120.254 58.5936 120.258 58.5944 120.261 58.596C120.869 59.2696 121.605 59.8163 122.425 60.2044C123.246 60.5925 124.135 60.8144 125.041 60.8574C125.948 60.9003 126.854 60.7634 127.708 60.4546C128.561 60.1458 129.345 59.6711 130.014 59.058C130.755 58.381 131.338 57.5493 131.721 56.622C132.12 55.6309 132.287 54.5616 132.21 53.496C132.084 51.858 131.372 50.3203 130.205 49.1636C129.039 48.0069 127.495 47.3085 125.856 47.196C124.489 47.1022 123.125 47.4212 121.941 48.1118C120.757 48.8024 119.808 49.8326 119.217 51.069C118.896 51.7305 118.684 52.4397 118.59 53.169C118.445 54.2939 118.578 55.4372 118.977 56.499C118.979 56.5029 118.98 56.5071 118.98 56.5115C118.98 56.5158 118.979 56.5202 118.978 56.5242C118.976 56.5281 118.973 56.5317 118.97 56.5346C118.967 56.5375 118.963 56.5397 118.959 56.541C118.953 56.5451 118.947 56.5474 118.94 56.5474C118.933 56.5474 118.926 56.5451 118.92 56.541H118.98L118.476 58.077C118.416 58.248 118.374 58.377 118.341 58.476C118.308 58.575 118.29 58.584 118.29 58.584Z" fill="#E0E0E0"/>
<path d="M123.108 53.0669H124.329C124.328 52.9275 124.355 52.7894 124.409 52.6607C124.463 52.5321 124.542 52.4156 124.641 52.3182C124.741 52.2207 124.859 52.1444 124.989 52.0936C125.119 52.0429 125.258 52.0188 125.397 52.0229C125.602 52.0159 125.805 52.0732 125.977 52.1866C126.148 52.3 126.28 52.464 126.354 52.6559C126.418 52.8162 126.444 52.9893 126.429 53.1612C126.413 53.3332 126.358 53.4992 126.267 53.6459C126.06 53.9849 125.604 54.2969 124.782 54.1529V55.9529H125.982V55.3019C126.478 55.1561 126.913 54.8514 127.219 54.4346C127.525 54.0178 127.686 53.512 127.677 52.9949C127.677 51.1949 126.072 50.7929 125.388 50.7929C124.872 50.7839 123.084 50.9129 123.108 53.0669Z" fill="#E0E0E0"/>
<path d="M126.006 56.4119H124.779V57.5579H126.006V56.4119Z" fill="#E0E0E0"/>
<path d="M42.186 21.6H47.916C47.916 21.6 47.916 16.8 52.917 16.704C53.8817 16.6669 54.8339 16.9321 55.6406 17.4624C56.4474 17.9927 57.0684 18.7617 57.417 19.662C57.7183 20.4131 57.8375 21.2249 57.7651 22.031C57.6926 22.8371 57.4304 23.6146 57 24.3C56.028 25.902 53.898 27.36 50.037 26.679V35.079H55.704V32.031C55.704 32.031 63.651 29.976 63.651 21.231C63.651 12.852 56.151 10.905 52.92 10.905C50.457 10.893 42.078 11.49 42.186 21.6Z" fill="#E0E0E0"/>
<path d="M55.77 37.269H50.019V42.639H55.77V37.269Z" fill="#E0E0E0"/>
<path d="M37.089 41.556L32.589 40.356C32.589 40.356 31.578 44.142 27.627 43.158C26.862 42.9834 26.1706 42.5746 25.649 41.9884C25.1274 41.4023 24.8016 40.668 24.717 39.888C24.6384 39.2339 24.7147 38.5705 24.9399 37.9514C25.165 37.3322 25.5326 36.7748 26.013 36.324C27.114 35.268 29.097 34.569 31.992 35.916L33.756 29.316L29.301 28.116L28.659 30.516C28.659 30.516 21.975 30.462 20.136 37.35C18.378 43.95 23.877 47.049 26.409 47.724C28.338 48.24 35.052 49.53 37.089 41.556Z" fill="#EBEBEB"/>
<path d="M29.6997 26.3789L34.2213 27.5862L35.3489 23.3631L30.8274 22.1558L29.6997 26.3789Z" fill="#EBEBEB"/>
<path d="M123.966 92.166L127.713 92.568C127.713 92.568 128.052 89.424 131.328 89.718C131.96 89.7642 132.562 90.0058 133.051 90.4095C133.54 90.8132 133.89 91.3589 134.055 91.971C134.198 92.483 134.219 93.0216 134.114 93.5429C134.01 94.0642 133.784 94.5536 133.455 94.971C132.705 95.952 131.211 96.753 128.733 96.036L128.133 101.535L131.838 101.934L132.051 99.936C132.051 99.936 137.391 99.153 138.009 93.426C138.609 87.948 133.824 86.148 131.709 85.926C130.128 85.749 124.608 85.548 123.966 92.166Z" fill="#EBEBEB"/>
<path d="M131.748 103.36L127.99 102.955L127.611 106.465L131.369 106.87L131.748 103.36Z" fill="#EBEBEB"/>
<path d="M14.766 114.633L18.702 114.207C18.702 114.207 18.345 110.907 21.774 110.472C22.4325 110.379 23.1037 110.492 23.6949 110.797C24.286 111.102 24.7679 111.583 25.074 112.173C25.3368 112.667 25.4795 113.216 25.4904 113.775C25.5014 114.334 25.3803 114.888 25.137 115.392C24.588 116.565 23.232 117.723 20.529 117.543L21.15 123.321L25.05 122.901L24.825 120.801C24.825 120.801 30.132 118.8 29.484 112.782C28.863 107.025 23.556 106.245 21.345 106.482C19.656 106.665 13.941 107.7 14.766 114.633Z" fill="#F5F5F5"/>
<path d="M25.2526 124.396L21.3005 124.822L21.698 128.512L25.6502 128.086L25.2526 124.396Z" fill="#F5F5F5"/>
<path d="M69.513 25.935L72.975 24.924C72.975 24.924 72.126 22.017 75.132 21.084C75.7081 20.8924 76.3296 20.8854 76.9099 21.0639C77.4902 21.2425 78.0003 21.5977 78.369 22.08C78.6841 22.4807 78.9002 22.9501 78.9997 23.45C79.0993 23.9499 79.0795 24.4662 78.942 24.957C78.642 26.094 77.607 27.357 75.153 27.621L76.635 32.7L80.058 31.701L79.521 29.853C79.521 29.853 83.961 27.21 82.416 21.918C80.937 16.857 76.053 17.007 74.1 17.574C72.624 18 67.665 19.845 69.513 25.935Z" fill="#F5F5F5"/>
<path d="M80.4873 33.0148L77.0113 34.0293L77.9585 37.2749L81.4345 36.2604L80.4873 33.0148Z" fill="#F5F5F5"/>
<path d="M131.349 76.2149L134.148 75.3989C134.148 75.3989 133.461 73.0499 135.9 72.2999C136.365 72.1449 136.867 72.1391 137.335 72.2832C137.804 72.4274 138.216 72.7143 138.513 73.1039C138.768 73.4272 138.944 73.8066 139.024 74.2108C139.104 74.6149 139.087 75.0324 138.975 75.4289C138.729 76.3469 137.898 77.3639 135.918 77.5799L137.118 81.6839L139.884 80.8769L139.449 79.3769C139.449 79.3769 143.049 77.2409 141.786 72.9659C140.586 68.8769 136.647 68.9969 135.078 69.4559C133.863 69.8129 129.858 71.2979 131.349 76.2149Z" fill="#F5F5F5"/>
<path d="M140.213 81.9364L137.405 82.7559L138.17 85.3765L140.978 84.557L140.213 81.9364Z" fill="#F5F5F5"/>
<path d="M140.487 143.655C140.487 143.7 111.165 143.733 75.003 143.733C38.841 143.733 9.513 143.7 9.513 143.655C9.513 143.61 38.829 143.577 75.003 143.577C111.177 143.577 140.487 143.613 140.487 143.655Z" fill="#263238"/>
<path d="M123.636 36.1052C124.65 29.7017 120.281 23.6885 113.877 22.6743C107.474 21.6601 101.461 26.0289 100.447 32.4324C99.4324 38.8358 103.801 44.849 110.205 45.8632C116.608 46.8774 122.621 42.5086 123.636 36.1052Z" fill="white"/>
<path d="M123.786 34.272C123.786 34.272 123.786 34.209 123.768 34.083C123.75 33.957 123.747 33.765 123.732 33.525C123.732 33.402 123.717 33.264 123.708 33.114C123.699 32.964 123.66 32.814 123.633 32.625C123.606 32.436 123.576 32.256 123.543 32.052C123.51 31.848 123.441 31.641 123.39 31.413C123.12 30.3157 122.685 29.2657 122.1 28.299C121.331 27.0179 120.321 25.8973 119.127 24.999L118.611 24.6C118.434 24.483 118.245 24.378 118.062 24.264C117.879 24.15 117.693 24.024 117.492 23.934L116.892 23.634L116.592 23.487L116.253 23.4L115.596 23.16C115.371 23.085 115.14 23.04 114.909 22.977C114.676 22.9093 114.44 22.8552 114.201 22.815C113.713 22.7252 113.22 22.6691 112.725 22.647C112.473 22.647 112.221 22.611 111.963 22.617L111.192 22.656C111.063 22.656 110.931 22.656 110.802 22.683L110.412 22.743C110.154 22.785 109.89 22.815 109.629 22.869C109.101 22.9879 108.581 23.1402 108.072 23.325C107.55 23.5125 107.042 23.736 106.551 23.994C106.305 24.129 106.068 24.294 105.825 24.429C105.705 24.504 105.576 24.57 105.462 24.657L105.12 24.9C104.166 25.5826 103.333 26.419 102.654 27.375L102.387 27.735L102.15 28.119L101.916 28.5C101.834 28.6274 101.762 28.7608 101.7 28.899L101.304 29.721L100.986 30.6C100.186 32.9878 100.186 35.5713 100.986 37.959L101.301 38.826C101.436 39.099 101.568 39.375 101.697 39.648L101.799 39.852L101.916 40.044L102.15 40.431L102.384 40.815L102.654 41.175C103.004 41.6514 103.386 42.1035 103.797 42.528C104.213 42.9313 104.655 43.3071 105.12 43.653L105.462 43.908C105.576 43.995 105.705 44.061 105.822 44.136C106.068 44.283 106.305 44.436 106.551 44.571C107.042 44.8291 107.55 45.0526 108.072 45.24C108.58 45.4276 109.1 45.58 109.629 45.696C109.89 45.75 110.154 45.78 110.412 45.825L110.802 45.885C110.931 45.9 111.063 45.9 111.192 45.909L111.966 45.951C112.221 45.951 112.473 45.93 112.725 45.921C113.22 45.898 113.714 45.8409 114.201 45.75C114.44 45.7109 114.676 45.6578 114.909 45.591C115.14 45.528 115.374 45.48 115.596 45.405L116.253 45.165L116.577 45.048L116.877 44.901L117.477 44.601C117.681 44.511 117.858 44.379 118.047 44.274C118.236 44.169 118.419 44.052 118.596 43.935L119.103 43.56C120.296 42.66 121.305 41.5398 122.076 40.26C122.663 39.2934 123.101 38.2435 123.375 37.146C123.426 36.921 123.504 36.711 123.528 36.507C123.552 36.303 123.591 36.111 123.618 35.934C123.645 35.757 123.678 35.595 123.693 35.445C123.708 35.295 123.711 35.145 123.717 35.034C123.731 34.794 123.743 34.608 123.753 34.476C123.753 34.353 123.771 34.287 123.771 34.287C123.771 34.287 123.771 34.353 123.771 34.479C123.771 34.605 123.771 34.794 123.75 35.037C123.75 35.16 123.75 35.298 123.732 35.448C123.714 35.598 123.69 35.748 123.666 35.94C123.642 36.132 123.612 36.312 123.582 36.516C123.552 36.72 123.483 36.933 123.435 37.161C123.168 38.2679 122.736 39.328 122.151 40.305C121.382 41.6052 120.369 42.7449 119.169 43.662L118.659 44.046C118.482 44.163 118.293 44.271 118.107 44.388C117.921 44.505 117.738 44.628 117.534 44.721L116.934 45.021L116.634 45.168L116.307 45.291L115.644 45.534C115.419 45.609 115.182 45.657 114.948 45.723C114.714 45.7925 114.475 45.8467 114.234 45.885C113.739 45.9798 113.238 46.039 112.734 46.062C112.479 46.062 112.221 46.098 111.963 46.095L111.183 46.056C111.051 46.056 110.919 46.056 110.787 46.032L110.394 45.972C110.13 45.927 109.863 45.897 109.599 45.843C109.065 45.7246 108.538 45.5713 108.024 45.384C107.495 45.1959 106.979 44.9703 106.482 44.709C106.23 44.574 105.993 44.409 105.744 44.271C105.624 44.193 105.495 44.127 105.378 44.04L105.03 43.782C104.558 43.4321 104.11 43.0513 103.689 42.642C103.272 42.2132 102.885 41.7561 102.531 41.274L102.258 40.911L102.018 40.521L101.781 40.131L101.661 39.933L101.562 39.726C101.427 39.45 101.295 39.174 101.16 38.895C101.025 38.616 100.947 38.295 100.839 38.019C100.023 35.6 100.023 32.9801 100.839 30.561C100.947 30.261 101.055 29.961 101.16 29.685L101.562 28.851C101.625 28.712 101.699 28.5777 101.781 28.449L102.021 28.059L102.258 27.669L102.531 27.306C102.886 26.8247 103.273 26.3677 103.689 25.938C104.11 25.5289 104.558 25.149 105.03 24.801L105.378 24.54C105.495 24.453 105.624 24.387 105.744 24.309C105.993 24.162 106.23 24.009 106.482 23.871C106.98 23.6103 107.495 23.3847 108.024 23.196C108.538 23.0088 109.065 22.8555 109.599 22.737C109.863 22.683 110.13 22.653 110.394 22.611L110.787 22.551C110.919 22.533 111.051 22.533 111.183 22.524L111.963 22.488C112.221 22.488 112.479 22.509 112.734 22.518C113.237 22.5428 113.739 22.6019 114.234 22.695C114.475 22.7348 114.714 22.7899 114.948 22.86C115.182 22.923 115.416 22.971 115.644 23.046L116.307 23.292L116.634 23.412L116.934 23.559L117.534 23.859C117.738 23.952 117.918 24.084 118.11 24.195C118.302 24.306 118.485 24.417 118.662 24.537L119.172 24.918C120.372 25.8343 121.384 26.9743 122.151 28.275C122.738 29.2514 123.172 30.3116 123.438 31.419C123.486 31.647 123.561 31.857 123.585 32.064C123.609 32.271 123.642 32.46 123.669 32.64C123.696 32.82 123.723 32.982 123.735 33.132C123.747 33.282 123.735 33.432 123.753 33.543C123.753 33.786 123.768 33.972 123.774 34.104C123.78 34.236 123.786 34.272 123.786 34.272Z" fill="#263238"/>
<path d="M107.871 32.259H110.1C110.1 32.259 110.1 30.387 112.047 30.354C112.422 30.3402 112.791 30.4438 113.105 30.6504C113.418 30.8569 113.658 31.156 113.793 31.506C113.911 31.7972 113.958 32.1122 113.93 32.4251C113.902 32.738 113.801 33.0399 113.634 33.306C113.256 33.93 112.434 34.506 110.934 34.233V37.5H113.139V36.3C113.139 36.3 116.232 35.502 116.232 32.1C116.232 28.839 113.307 28.083 112.056 28.083C111.09 28.095 107.829 28.326 107.871 32.259Z" fill="#FF81AE"/>
<path d="M113.157 38.3608H110.919V40.4518H113.157V38.3608Z" fill="#FF81AE"/>
<path d="M106.518 49.9349C107.532 49.9349 108.354 49.1129 108.354 48.0989C108.354 47.0849 107.532 46.2629 106.518 46.2629C105.504 46.2629 104.682 47.0849 104.682 48.0989C104.682 49.1129 105.504 49.9349 106.518 49.9349Z" fill="white"/>
<path d="M108.354 48.099C108.339 48.099 108.354 47.937 108.267 47.658C108.157 47.2674 107.921 46.9244 107.595 46.683C107.332 46.4858 107.019 46.3657 106.692 46.3362C106.365 46.3067 106.035 46.3689 105.741 46.5159C105.447 46.6629 105.2 46.8889 105.027 47.1685C104.855 47.4481 104.763 47.7703 104.763 48.099C104.763 48.4277 104.855 48.7499 105.027 49.0296C105.2 49.3092 105.447 49.5351 105.741 49.6822C106.035 49.8292 106.365 49.8914 106.692 49.8619C107.019 49.8323 107.332 49.7122 107.595 49.515C107.921 49.2736 108.157 48.9306 108.267 48.54C108.345 48.264 108.339 48.099 108.354 48.099C108.369 48.099 108.354 48.141 108.354 48.216C108.355 48.33 108.343 48.4438 108.318 48.555C108.225 48.9704 107.991 49.3406 107.655 49.602C107.455 49.7597 107.226 49.8755 106.98 49.9424C106.734 50.0092 106.478 50.0257 106.226 49.991C105.974 49.9563 105.731 49.871 105.513 49.7402C105.294 49.6094 105.105 49.4359 104.955 49.23C104.712 48.9032 104.58 48.5066 104.58 48.099C104.58 47.6915 104.712 47.2948 104.955 46.968C105.104 46.764 105.293 46.5921 105.51 46.4624C105.727 46.3328 105.968 46.2481 106.219 46.2134C106.469 46.1787 106.724 46.1947 106.968 46.2604C107.212 46.3262 107.441 46.4403 107.64 46.596C107.978 46.8565 108.213 47.2269 108.306 47.643C108.331 47.7542 108.343 47.868 108.342 47.982C108.356 48.06 108.36 48.099 108.354 48.099Z" fill="#263238"/>
<path d="M108.9 89.0037C111.981 99.3758 112.641 110.316 110.832 120.984C110.604 122.298 111.183 123.648 112.56 124.029C113.76 124.356 115.377 123.624 115.605 122.298C117.623 110.766 116.963 98.9255 113.676 87.6897C112.776 84.6387 107.997 85.9377 108.9 89.0037Z" fill="#263238"/>
<path d="M121.875 76.4069C120.468 71.5769 116.589 67.6469 111.975 66.3689C112.905 62.9159 111.435 58.9259 109.608 55.8989C108.676 54.3995 107.44 53.1124 105.98 52.1207C104.52 51.129 102.867 50.4549 101.13 50.1419C97.65 49.5659 95.493 49.8779 92.13 50.9579C90.117 47.1029 86.25 45.0119 82.119 44.5169C77.988 44.0219 73.539 46.3469 71.865 50.3789C71.265 46.1399 66.489 43.6289 62.544 44.5829C58.599 45.5369 55.608 49.0409 53.76 52.8539L106.734 109.854C111.429 111.726 117.234 109.779 120.039 105.378C122.844 100.977 122.4 94.5449 119.034 90.5999C122.169 86.8049 123.282 81.2399 121.875 76.4069Z" fill="#FF81AE"/>
<path d="M78.0044 116.543L74.1477 116.127L71.2359 143.151L75.0926 143.567L78.0044 116.543Z" fill="#263238"/>
<path d="M84.1149 143.564L87.9716 143.148L85.0598 116.125L81.2031 116.54L84.1149 143.564Z" fill="#263238"/>
<path d="M35.307 60.0658C36.888 55.6438 39.783 52.2898 44.205 50.4658C48.627 48.6418 53.7 48.5998 58.452 49.4248C60.399 49.7698 62.4 50.2948 63.903 51.5818C65.406 52.8688 66.246 55.1158 65.382 56.8948C67.4537 55.7253 69.7937 55.1142 72.1727 55.1214C74.5517 55.1286 76.8879 55.754 78.9524 56.9361C81.017 58.1183 82.7388 59.8166 83.9492 61.8647C85.1597 63.9127 85.8171 66.2402 85.857 68.6189C90.15 68.2739 94.656 69.2189 98.061 71.8589C101.466 74.4989 103.575 78.9569 102.801 83.1929C105.6 82.9499 108.3 84.7559 109.8 87.1439C111.3 89.5319 111.78 92.4119 111.981 95.2229C112.104 96.9569 112.119 98.7449 111.54 100.383C111.258 101.181 110.838 101.934 110.64 102.762C110.418 103.761 110.556 104.799 110.586 105.825C110.658 108.205 110.14 110.566 109.08 112.699C108.02 114.831 106.449 116.668 104.508 118.048C102.567 119.427 100.315 120.306 97.9525 120.605C95.5901 120.905 93.1902 120.617 90.966 119.766C86.049 124.845 77.238 125.466 71.646 121.155C68.01 122.376 64.146 123.255 60.351 122.766C58.3924 122.523 56.5094 121.86 54.831 120.822C53.31 119.862 52.431 118.005 51.009 117.126C49.587 116.247 47.892 117.021 46.245 116.997C44.3105 116.975 42.4082 116.498 40.692 115.605C39.07 114.732 37.6486 113.53 36.5191 112.075C35.3897 110.62 34.5772 108.945 34.134 107.157C33.954 106.437 33.834 105.657 33.366 105.081C32.949 104.544 32.319 104.226 31.731 103.881C29.891 102.808 28.3088 101.344 27.0959 99.5929C25.8829 97.8419 25.0687 95.8462 24.7105 93.7464C24.3524 91.6466 24.4591 89.4939 25.0232 87.4398C25.5872 85.3857 26.5948 83.4803 27.975 81.8579C27.975 81.8579 25.2 74.7419 27.81 68.3579C30.42 61.9738 35.307 60.0658 35.307 60.0658Z" fill="#FF81AE"/>
<g opacity="0.3">
<path d="M120 100.293C118.905 101.966 117.39 103.323 115.607 104.228C113.825 105.134 111.836 105.558 109.839 105.456C109.24 107.324 108.266 109.05 106.976 110.529C105.687 112.007 104.109 113.206 102.339 114.052C100.569 114.899 98.6449 115.375 96.6846 115.451C94.7243 115.527 92.7691 115.202 90.939 114.495C86.022 119.571 77.211 120.195 71.619 115.881C67.983 117.102 64.119 117.981 60.324 117.492C58.3654 117.249 56.4824 116.586 54.804 115.548C53.286 114.588 52.404 112.731 50.982 111.852C49.56 110.973 47.868 111.747 46.218 111.723C44.2835 111.701 42.3813 111.224 40.665 110.331C39.0433 109.459 37.6221 108.257 36.4926 106.802C35.3632 105.348 34.5506 103.673 34.107 101.886C33.927 101.163 33.807 100.386 33.339 99.807C32.925 99.27 32.292 98.952 31.704 98.607C29.9096 97.5417 28.3607 96.1089 27.1591 94.4027C25.9576 92.6965 25.1304 90.7555 24.732 88.707C24.4236 90.3665 24.4074 92.067 24.684 93.732C25.0566 95.8266 25.8766 97.8163 27.088 99.5651C28.2995 101.314 29.874 102.781 31.704 103.866C32.304 104.208 32.925 104.526 33.339 105.066C33.795 105.666 33.939 106.419 34.107 107.142C34.5502 108.93 35.3627 110.605 36.4921 112.06C37.6215 113.515 39.043 114.717 40.665 115.59C42.383 116.489 44.2882 116.972 46.227 117C47.877 117.021 49.527 116.232 50.991 117.129C52.455 118.026 53.295 119.865 54.813 120.825C56.491 121.864 58.3743 122.526 60.333 122.766C64.137 123.255 67.992 122.376 71.628 121.155C77.22 125.478 86.028 124.845 90.948 119.769C92.7779 120.476 94.7329 120.801 96.693 120.725C98.6532 120.649 100.577 120.174 102.347 119.328C104.117 118.481 105.695 117.283 106.985 115.805C108.275 114.327 109.249 112.601 109.848 110.733C111.845 110.831 113.833 110.404 115.614 109.495C117.395 108.586 118.907 107.227 120 105.552C121.716 102.873 122.223 99.441 121.596 96.276C121.317 97.7022 120.776 99.0642 120 100.293Z" fill="black"/>
</g>
<path d="M55.989 91.5719C55.9445 91.5214 55.9044 91.4672 55.869 91.41C55.794 91.305 55.698 91.137 55.548 90.942C54.5363 89.5368 53.1977 88.3991 51.648 87.627C49.3819 86.4685 46.7579 86.2226 44.316 86.9399C43.3248 87.2215 42.3799 87.646 41.511 88.2C40.924 88.5717 40.3753 89.0008 39.873 89.4809C39.69 89.6459 39.573 89.781 39.471 89.88C39.429 89.9309 39.3806 89.9763 39.327 90.0149C39.3607 89.9576 39.4021 89.9051 39.45 89.859C39.537 89.763 39.654 89.61 39.831 89.436C40.322 88.9364 40.8651 88.4908 41.451 88.107C42.3218 87.5339 43.2733 87.0941 44.274 86.802C46.009 86.303 47.845 86.2713 49.5961 86.7101C51.3473 87.149 52.9514 88.0428 54.246 89.301C54.7528 89.7857 55.2046 90.325 55.593 90.909C55.737 91.11 55.821 91.284 55.893 91.395C55.9312 91.4504 55.9633 91.5097 55.989 91.5719Z" fill="#263238"/>
<path d="M60.162 109.338C60.1574 109.303 60.1574 109.268 60.162 109.233C60.162 109.155 60.162 109.053 60.18 108.933C60.198 108.813 60.207 108.633 60.222 108.426C60.237 108.219 60.291 107.997 60.33 107.742C60.4509 107.118 60.6173 106.505 60.828 105.906C61.8816 103.028 63.9358 100.625 66.615 99.1377C67.7563 98.5174 68.9968 98.1002 70.281 97.9047C71.6587 97.6946 73.0616 97.7138 74.433 97.9617C77.1017 98.4352 79.5426 99.7678 81.384 101.757C82.8883 103.378 83.8481 105.428 84.129 107.622C84.3042 109.096 84.0976 110.591 83.529 111.963C83.3255 112.464 83.0572 112.938 82.731 113.37C82.744 113.337 82.7612 113.305 82.782 113.277C82.824 113.211 82.878 113.121 82.944 113.01C83.8912 111.387 84.2732 109.497 84.03 107.634C83.7365 105.469 82.7773 103.448 81.285 101.853C79.4587 99.8869 77.0418 98.5694 74.4 98.0997C73.0454 97.8569 71.6602 97.8366 70.299 98.0397C69.0312 98.2294 67.8055 98.6353 66.675 99.2397C64.7624 100.288 63.1557 101.816 62.013 103.674C61.5715 104.382 61.2008 105.131 60.906 105.912C60.6887 106.504 60.5142 107.112 60.384 107.73C60.339 107.985 60.297 108.21 60.261 108.408L60.207 108.912L60.171 109.212C60.1739 109.254 60.1709 109.296 60.162 109.338Z" fill="#263238"/>
<path d="M99.063 112.77C99.0233 112.799 98.98 112.824 98.934 112.842C98.8078 112.908 98.6775 112.966 98.544 113.016C98.0553 113.208 97.5442 113.337 97.023 113.4C96.2466 113.497 95.4594 113.462 94.695 113.295C93.752 113.101 92.8642 112.699 92.0965 112.119C91.3288 111.538 90.7006 110.793 90.258 109.938C89.8915 109.246 89.644 108.498 89.526 107.724C89.4441 107.205 89.43 106.678 89.484 106.155C89.496 106.013 89.5161 105.872 89.544 105.732C89.5485 105.682 89.5607 105.634 89.58 105.588C89.5107 106.294 89.5299 107.005 89.637 107.706C89.7644 108.464 90.0179 109.195 90.387 109.869C90.8255 110.701 91.4414 111.426 92.1909 111.993C92.9405 112.561 93.8055 112.957 94.725 113.154C95.4733 113.325 96.2448 113.371 97.008 113.289C97.7121 113.203 98.4026 113.029 99.063 112.77Z" fill="#263238"/>
<path d="M53.505 54.7319C53.5054 54.6028 53.5194 54.4741 53.547 54.3479C53.6047 53.9979 53.6818 53.6513 53.778 53.3099C53.9143 52.7994 54.0837 52.2984 54.285 51.8099C54.7768 50.6167 55.4453 49.5043 56.268 48.5099C56.6019 48.1041 56.9617 47.7203 57.345 47.3609C57.6008 47.1168 57.8702 46.8874 58.152 46.6739C58.2524 46.5908 58.3598 46.5165 58.473 46.4519C58.491 46.4759 58.053 46.8149 57.423 47.4419C57.0527 47.8072 56.7041 48.1939 56.379 48.5999C55.5796 49.5925 54.9195 50.6897 54.417 51.8609C54.2128 52.34 54.0345 52.8297 53.883 53.3279C53.625 54.1919 53.532 54.7379 53.505 54.7319Z" fill="#263238"/>
<path d="M41.784 59.3278C41.784 59.3608 41.244 59.2048 40.365 59.1118C39.8497 59.0598 39.3313 59.0457 38.814 59.0698C38.1817 59.1065 37.5535 59.1958 36.936 59.3368C36.3198 59.4846 35.7176 59.6853 35.136 59.9368C34.6629 60.1463 34.2057 60.39 33.768 60.6658C33.024 61.1428 32.616 61.5208 32.595 61.4968C32.6778 61.3969 32.7702 61.3054 32.871 61.2238C32.9824 61.1174 33.0995 61.0172 33.222 60.9238C33.363 60.8188 33.522 60.6868 33.708 60.5698C34.1415 60.2731 34.6003 60.0152 35.079 59.7988C36.2523 59.2636 37.5193 58.9639 38.808 58.9168C39.3323 58.8985 39.8571 58.9246 40.377 58.9948C40.599 59.0158 40.797 59.0608 40.977 59.0938C41.127 59.1195 41.2753 59.1545 41.421 59.1988C41.5456 59.2308 41.6671 59.2739 41.784 59.3278Z" fill="#263238"/>
<path d="M41.784 84.213C41.784 84.213 41.748 84.255 41.667 84.324C41.586 84.393 41.469 84.492 41.304 84.603C40.8482 84.9332 40.3596 85.2157 39.846 85.446C38.1376 86.2202 36.2294 86.4393 34.3899 86.0722C32.5505 85.7052 30.8725 84.7706 29.592 83.4C29.2049 82.9916 28.861 82.5442 28.566 82.065C28.4828 81.9362 28.4067 81.803 28.338 81.666C28.3092 81.6214 28.2869 81.5729 28.272 81.522C28.272 81.522 28.395 81.705 28.617 82.032C29.3968 83.1801 30.4214 84.1411 31.617 84.846C33.364 85.8924 35.4195 86.3016 37.434 86.004C38.2512 85.8889 39.0493 85.6649 39.807 85.338C40.3186 85.1174 40.8104 84.8535 41.277 84.549C41.601 84.336 41.775 84.204 41.784 84.213Z" fill="#263238"/>
<path d="M34.425 98.271C34.452 98.271 34.218 98.805 33.972 99.69C33.8285 100.208 33.7192 100.735 33.645 101.268C33.5592 101.919 33.5211 102.576 33.531 103.233C33.5496 103.89 33.6168 104.545 33.732 105.192C33.8293 105.721 33.9616 106.243 34.128 106.755C34.413 107.628 34.671 108.138 34.644 108.15C34.5646 108.042 34.499 107.924 34.449 107.799C34.3758 107.659 34.3098 107.516 34.251 107.37C34.182 107.202 34.095 107.01 34.023 106.788C33.8408 106.276 33.6964 105.752 33.591 105.219C33.4658 104.565 33.3936 103.902 33.375 103.236C33.3638 102.571 33.4069 101.905 33.504 101.247C33.5859 100.71 33.7062 100.18 33.864 99.66C33.927 99.435 34.005 99.24 34.068 99.06C34.1196 98.9111 34.1787 98.7649 34.245 98.622C34.2944 98.4999 34.3547 98.3824 34.425 98.271Z" fill="#263238"/>
<path d="M53.877 119.88C53.8297 119.832 53.7865 119.779 53.748 119.724C53.67 119.616 53.55 119.46 53.409 119.253C53.0007 118.667 52.6261 118.058 52.287 117.429C51.7788 116.498 51.3657 115.518 51.054 114.504C50.8745 113.903 50.7352 113.29 50.637 112.671C50.5396 112.004 50.4914 111.332 50.493 110.658C50.515 108.29 51.0514 105.955 52.065 103.815C52.3693 103.169 52.7191 102.545 53.112 101.949C53.247 101.736 53.37 101.583 53.445 101.472C53.4823 101.415 53.5256 101.363 53.574 101.316C53.5442 101.376 53.5102 101.434 53.472 101.49C53.403 101.604 53.292 101.766 53.172 101.982C52.8011 102.588 52.4674 103.216 52.173 103.863C51.2009 105.998 50.6898 108.315 50.673 110.661C50.6701 111.326 50.7152 111.991 50.808 112.65C50.9044 113.263 51.0397 113.869 51.213 114.465C51.5182 115.472 51.9201 116.448 52.413 117.378C52.833 118.176 53.217 118.794 53.49 119.217L53.805 119.706C53.8356 119.761 53.8598 119.819 53.877 119.88Z" fill="#263238"/>
<path d="M50.859 107.187C50.7564 107.25 50.6421 107.292 50.523 107.31C50.1993 107.373 49.8658 107.366 49.545 107.289C49.0752 107.173 48.6232 106.994 48.201 106.758C47.6813 106.477 47.196 106.137 46.755 105.744C45.9519 105.027 45.3072 104.15 44.862 103.17C44.7329 102.878 44.6236 102.577 44.535 102.27C44.4963 102.157 44.4721 102.04 44.463 101.922C44.49 101.922 44.61 102.408 44.964 103.137C45.4293 104.085 46.0719 104.935 46.857 105.642C47.2894 106.028 47.7633 106.365 48.27 106.647C48.679 106.884 49.1165 107.069 49.572 107.196C49.9948 107.302 50.4377 107.299 50.859 107.187Z" fill="#263238"/>
<path d="M72.582 121.641C72.4821 121.606 72.3873 121.559 72.3 121.5C72.0572 121.357 71.8219 121.202 71.595 121.035C70.8437 120.488 70.1652 119.848 69.576 119.13C68.9887 118.407 68.4976 117.612 68.115 116.763C68.0018 116.507 67.9017 116.246 67.815 115.98C67.7752 115.883 67.747 115.783 67.731 115.68C67.758 115.68 67.914 116.079 68.226 116.712C69.0354 118.369 70.2159 119.818 71.676 120.945C72.225 121.383 72.6 121.617 72.582 121.641Z" fill="#263238"/>
<path d="M92.715 112.29C92.7398 112.394 92.7509 112.501 92.748 112.608C92.748 112.812 92.748 113.106 92.748 113.472C92.7511 114.43 92.6505 115.386 92.448 116.322C92.1738 117.547 91.6261 118.693 90.846 119.676C90.7854 119.764 90.7138 119.843 90.633 119.913C90.609 119.895 90.885 119.535 91.254 118.911C91.7315 118.093 92.0834 117.208 92.298 116.286C92.4917 115.36 92.6021 114.418 92.628 113.472C92.6361 113.077 92.6652 112.682 92.715 112.29Z" fill="#263238"/>
<path d="M105.414 96.7798C105.464 96.7945 105.512 96.8167 105.555 96.8458C105.642 96.8938 105.777 96.9628 105.942 97.0678C106.406 97.3643 106.834 97.7136 107.217 98.1088C107.784 98.6996 108.257 99.3733 108.621 100.107C108.835 100.539 109.02 100.985 109.176 101.442C109.337 101.934 109.471 102.435 109.578 102.942C109.912 104.721 110.035 106.534 109.944 108.342C109.923 109.035 109.887 109.596 109.863 109.983C109.863 110.16 109.839 110.307 109.83 110.427C109.831 110.479 109.823 110.531 109.806 110.58C109.802 110.528 109.802 110.476 109.806 110.424C109.806 110.307 109.806 110.157 109.806 109.98C109.806 109.569 109.827 109.014 109.842 108.342C109.896 106.542 109.758 104.742 109.431 102.972C109.324 102.472 109.192 101.979 109.035 101.493C108.885 101.042 108.705 100.601 108.498 100.173C108.144 99.4497 107.688 98.781 107.145 98.1868C106.772 97.7915 106.36 97.4347 105.915 97.1218C105.6 96.8998 105.408 96.7888 105.414 96.7798Z" fill="#263238"/>
<path d="M101.907 100.104C101.999 100.007 102.099 99.9184 102.207 99.8398C102.414 99.6808 102.705 99.4408 103.056 99.1378C103.97 98.3447 104.811 97.4701 105.567 96.5248C106.32 95.5779 106.984 94.5636 107.55 93.4948C107.769 93.0838 107.937 92.7478 108.045 92.5108C108.097 92.3861 108.16 92.2666 108.234 92.1538C108.205 92.2864 108.16 92.4152 108.102 92.5378C108.009 92.7808 107.856 93.1378 107.649 93.5458C106.558 95.7349 105.018 97.6691 103.128 99.2218C102.765 99.5218 102.462 99.7438 102.246 99.8878C102.141 99.9721 102.028 100.045 101.907 100.104Z" fill="#263238"/>
<path d="M100.101 59.1328C100.101 59.1328 100.128 59.1688 100.167 59.2438C100.206 59.3188 100.263 59.4328 100.323 59.5828C100.503 60.0071 100.648 60.4456 100.755 60.8938C101.12 62.3778 101.11 63.9292 100.725 65.4082C100.341 66.8873 99.5943 68.2473 98.553 69.3658C98.2414 69.7043 97.9022 70.0163 97.539 70.2988C97.413 70.4038 97.305 70.4698 97.239 70.5208C97.2056 70.5483 97.1682 70.5706 97.128 70.5868C97.2446 70.4666 97.3699 70.3553 97.503 70.2538C97.8474 69.9561 98.1711 69.6354 98.472 69.2938C99.477 68.1727 100.199 66.8274 100.578 65.3703C100.957 63.9131 100.982 62.3864 100.65 60.9178C100.554 60.4727 100.428 60.0347 100.272 59.6068C100.205 59.4525 100.148 59.2942 100.101 59.1328Z" fill="#263238"/>
<path d="M105.414 62.0998C105.414 62.1268 105.114 62.1208 104.643 62.1898C103.409 62.3679 102.269 62.9491 101.4 63.8428C101.07 64.1848 100.899 64.4428 100.878 64.4158C100.986 64.1755 101.135 63.9561 101.319 63.7678C102.163 62.8031 103.343 62.1968 104.619 62.0728C104.884 62.0351 105.153 62.0443 105.414 62.0998Z" fill="#263238"/>
<path d="M115.095 94.7396C115.107 94.6669 115.126 94.5955 115.152 94.5266C115.191 94.3886 115.266 94.1906 115.335 93.9266C115.872 92.0865 116.03 90.1566 115.8 88.2536C115.554 86.1418 114.801 84.1206 113.607 82.3616C113.223 81.8097 112.801 81.2854 112.344 80.7926C111.563 79.9602 110.677 79.234 109.707 78.6326C109.053 78.2272 108.363 77.8828 107.646 77.6036C107.394 77.4956 107.19 77.4416 107.046 77.3876C106.976 77.3655 106.908 77.3385 106.842 77.3066C106.916 77.3159 106.988 77.333 107.058 77.3576C107.193 77.4026 107.403 77.4476 107.658 77.5466C108.39 77.8043 109.094 78.137 109.758 78.5396C110.751 79.1326 111.659 79.8572 112.458 80.6936C112.923 81.1896 113.352 81.7179 113.742 82.2746C114.153 82.8799 114.515 83.5169 114.825 84.1796C115.411 85.465 115.791 86.8349 115.95 88.2386C116.087 89.3821 116.078 90.5384 115.923 91.6796C115.824 92.4476 115.654 93.2049 115.416 93.9416C115.338 94.2056 115.251 94.4006 115.203 94.5416C115.171 94.6095 115.135 94.6756 115.095 94.7396Z" fill="#263238"/>
<path d="M115.074 75.5337C115.052 75.7907 114.991 76.0428 114.891 76.2807C114.685 76.8659 114.396 77.4185 114.033 77.9217C113.671 78.4268 113.235 78.8747 112.74 79.2507C112.545 79.4189 112.324 79.5547 112.086 79.6527C112.77 79.1273 113.381 78.514 113.904 77.8287C114.387 77.1149 114.78 76.344 115.074 75.5337Z" fill="#263238"/>
<path d="M83.553 50.958C83.6032 51.0536 83.6434 51.1541 83.673 51.258C83.7168 51.3806 83.7528 51.5059 83.781 51.633C83.817 51.783 83.865 51.951 83.895 52.14C83.9747 52.5849 84.0198 53.0352 84.03 53.487C84.035 54.0417 83.9919 54.5958 83.901 55.143C83.8032 55.6881 83.6566 56.2232 83.463 56.742C83.3035 57.1656 83.1088 57.575 82.881 57.966C82.791 58.134 82.689 58.266 82.605 58.407C82.5356 58.5166 82.4594 58.6218 82.377 58.722C82.3129 58.8142 82.2395 58.8997 82.158 58.977C82.131 58.959 82.425 58.581 82.785 57.912C82.9953 57.5197 83.1768 57.1126 83.328 56.694C83.5106 56.1803 83.651 55.6525 83.748 55.116C83.8371 54.5785 83.8833 54.0348 83.886 53.49C83.8838 53.0441 83.8497 52.599 83.784 52.158C83.67 51.417 83.523 50.967 83.553 50.958Z" fill="#263238"/>
<g opacity="0.3">
<path d="M83.94 104.487C84.21 103.815 84.291 102.852 83.64 102.564C83.187 102.366 82.68 102.642 82.266 102.912C80.964 103.773 80.583 104.346 79.293 105.18C78.375 105.78 77.019 106.425 76.023 105.969C74.916 105.465 74.901 103.914 74.256 102.885C74.173 102.714 74.0458 102.568 73.8876 102.463C73.7294 102.357 73.5458 102.296 73.356 102.285C73.1363 102.308 72.928 102.394 72.7568 102.534C72.5857 102.674 72.4592 102.86 72.393 103.071C72.3757 103.506 72.3988 103.942 72.462 104.373C72.5248 105.336 72.5047 106.302 72.402 107.262C72.3476 107.522 72.3086 107.786 72.285 108.051C71.214 107.976 70.116 107.964 69.147 107.904C69.027 107.881 68.9033 107.885 68.7853 107.917C68.6672 107.948 68.558 108.007 68.466 108.087C68.3502 108.252 68.2836 108.447 68.274 108.648C68.226 108.996 68.193 109.347 68.172 109.701C63.168 109.725 58.443 109.443 54.018 107.001C49.257 104.385 46.977 100.158 46.977 94.254C46.977 94.254 47.001 92.484 44.466 92.454C41.667 92.415 41.709 95.526 41.709 95.526C41.19 101.919 45.417 108.021 50.961 111.249C56.361 114.399 62.82 115.236 69.09 115.26C69.2195 115.422 69.3782 115.558 69.558 115.662C69.9568 115.836 70.3978 115.891 70.827 115.818C71.9755 115.703 73.099 115.409 74.157 114.948C74.5632 115.285 75.0579 115.499 75.582 115.563C76.8534 115.831 78.1614 115.879 79.449 115.704C80.319 115.578 81.702 115.056 81.96 114.204C82.0038 113.935 82.0731 113.671 82.167 113.415V113.397C82.2675 113.292 82.3626 113.182 82.452 113.067L82.617 112.911C83.217 112.326 83.361 110.511 82.722 109.944C82.8181 109.821 82.9063 109.691 82.986 109.557L82.8 109.8C83.514 108.732 83.4 107.799 82.452 106.86L82.488 106.806L82.443 106.854C83.172 105.786 83.487 105.624 83.94 104.487Z" fill="black"/>
</g>
<path d="M46.971 92.8137C46.971 98.7177 49.251 102.945 54.012 105.561C58.773 108.177 63.885 108.303 69.312 108.237C69.388 110.095 69.464 111.954 69.54 113.814C63.123 113.829 56.493 113.028 50.94 109.8C45.387 106.572 41.184 100.473 41.7 94.0797C41.7 94.0797 41.658 90.9687 44.457 91.0077C46.995 91.0437 46.971 92.8137 46.971 92.8137Z" fill="#263238"/>
<path d="M83.631 101.1C83.178 100.905 82.671 101.178 82.257 101.451C80.955 102.312 80.574 102.882 79.284 103.719C78.366 104.319 77.01 104.964 76.014 104.508C74.907 104.004 74.892 102.45 74.247 101.421C74.1642 101.25 74.0371 101.104 73.8788 100.998C73.7206 100.893 73.5369 100.831 73.347 100.821C73.1269 100.842 72.918 100.928 72.7467 101.068C72.5754 101.208 72.4492 101.395 72.384 101.607C72.3667 102.041 72.3898 102.476 72.453 102.906C72.5158 103.87 72.4957 104.837 72.393 105.798C72.279 106.779 72.069 108.582 72.621 109.398C72.8652 110.604 73.2687 111.772 73.821 112.872C73.98 113.202 73.485 112.947 73.779 113.172C74.073 113.397 74.397 113.91 75.579 114.111C76.8507 114.376 78.1583 114.424 79.446 114.252C80.316 114.126 81.699 113.601 81.957 112.752C82.0008 112.483 82.0701 112.219 82.164 111.963C82.2929 111.774 82.4486 111.606 82.626 111.462C83.226 110.862 83.376 108.972 82.695 108.462C83.526 107.325 83.442 106.344 82.437 105.363C83.175 104.307 83.49 104.148 83.937 103.008C84.21 102.354 84.3 101.4 83.631 101.1Z" fill="white"/>
<path d="M75.036 107.445C74.82 107.631 74.67 106.932 74.406 106.872C72.78 106.518 70.773 106.551 69.141 106.452C69.0211 106.428 68.8972 106.432 68.779 106.464C68.6609 106.495 68.5517 106.554 68.46 106.635C68.3442 106.8 68.2776 106.995 68.268 107.196C68.0461 108.84 68.0968 110.51 68.418 112.137C68.583 112.962 68.883 113.853 69.552 114.213C69.95 114.39 70.3919 114.445 70.821 114.369C73.2861 114.104 75.6002 113.052 77.421 111.369L75.036 107.445Z" fill="white"/>
<path d="M73.8 113.319C73.7268 113.246 73.6633 113.165 73.611 113.076C73.54 112.981 73.4758 112.88 73.419 112.776C73.337 112.638 73.2629 112.496 73.197 112.35C72.8076 111.509 72.5312 110.62 72.375 109.707C72.2063 108.797 72.1499 107.87 72.207 106.947C72.216 106.787 72.233 106.628 72.258 106.47C72.2713 106.35 72.2913 106.231 72.318 106.113C72.3298 106.009 72.3582 105.908 72.402 105.813C72.429 105.813 72.339 106.248 72.318 106.95C72.2931 107.864 72.3635 108.778 72.528 109.677C72.6868 110.578 72.9443 111.458 73.296 112.302C73.569 112.944 73.818 113.301 73.8 113.319Z" fill="#263238"/>
<path d="M81.525 109.65C81.498 109.611 81.888 109.335 82.287 108.915C82.686 108.495 82.953 108.099 82.992 108.12C82.8725 108.466 82.6659 108.776 82.392 109.02C82.1594 109.298 81.8616 109.515 81.525 109.65Z" fill="#263238"/>
<path d="M81.3 112.716C81.273 112.677 81.663 112.401 82.062 111.981C82.461 111.561 82.728 111.165 82.767 111.189C82.4846 111.863 81.9617 112.407 81.3 112.716Z" fill="#263238"/>
<path d="M81 106.86C80.976 106.821 81.366 106.545 81.765 106.125C82.164 105.705 82.431 105.309 82.47 105.33C82.3506 105.676 82.1439 105.986 81.87 106.23C81.6373 106.509 81.3382 106.726 81 106.86Z" fill="#263238"/>
<path d="M68.484 77.3487C68.391 78.0417 65.964 78.2487 63.267 79.1967C60.567 80.0817 58.494 81.3837 58.002 80.8887C57.777 80.6487 58.032 79.9587 58.8 79.1397C59.8386 78.1126 61.0976 77.3357 62.4813 76.8678C63.8651 76.4 65.3372 76.2536 66.786 76.4397C67.893 76.6317 68.517 77.0217 68.484 77.3487Z" fill="#263238"/>
<path d="M94.413 66.1709C93.888 66.7079 91.89 66.0959 89.475 66.0179C87.075 65.8709 85.005 66.2939 84.546 65.7179C84.345 65.4359 84.678 64.8929 85.584 64.3919C86.8333 63.7684 88.2255 63.4868 89.619 63.5759C91.0027 63.6214 92.3491 64.0356 93.519 64.7759C94.377 65.3369 94.647 65.9069 94.413 66.1709Z" fill="#263238"/>
<path d="M94.98 76.6138C98.916 78.1528 100.788 82.7788 99.159 86.9458C97.53 91.1128 93.021 93.2458 89.082 91.7068C85.143 90.1678 83.274 85.5418 84.9 81.3748C86.526 77.2078 91.041 75.0748 94.98 76.6138Z" fill="white"/>
<path d="M95.121 76.2508C99.057 77.7898 101.121 81.9508 99.708 85.5508C98.295 89.1508 93.972 90.8128 90.036 89.2738C86.1 87.7348 84.036 83.5738 85.449 79.9738C86.862 76.3738 91.182 74.7148 95.121 76.2508Z" fill="#263238"/>
<path d="M71.217 81.9477C74.418 84.7077 74.646 89.6937 71.724 93.0837C68.802 96.4737 63.837 96.9837 60.624 94.2207C57.411 91.4577 57.195 86.4747 60.117 83.0847C63.039 79.6947 68.016 79.1997 71.217 81.9477Z" fill="white"/>
<path d="M71.472 81.6539C74.673 84.4139 75.225 89.022 72.705 91.944C70.185 94.866 65.547 94.998 62.346 92.244C59.145 89.49 58.59 84.8759 61.11 81.9539C63.63 79.0319 68.268 78.8999 71.472 81.6539Z" fill="#263238"/>
<g opacity="0.3">
<path d="M79.26 93.8368C78.399 94.4368 78.474 95.2738 78.486 96.3238C78.4889 96.7818 78.6476 97.2251 78.936 97.5808C79.0801 97.7812 79.2698 97.9445 79.4894 98.0572C79.709 98.1698 79.9522 98.2287 80.199 98.2288C81.024 98.1988 81.771 97.4698 82.131 96.7288C82.671 95.6158 82.809 94.3648 82.89 93.1288C81.846 92.9998 80.121 93.2368 79.26 93.8368Z" fill="black"/>
</g>
<path d="M82.131 96.729C82.131 96.729 82.131 96.768 82.08 96.84C82.0218 96.9436 81.9577 97.0438 81.888 97.14C81.6242 97.4823 81.3131 97.7853 80.964 98.04C80.7105 98.2073 80.4202 98.3102 80.118 98.34C79.7606 98.3726 79.4045 98.2651 79.125 98.04C78.8259 97.7913 78.6153 97.4524 78.525 97.074C78.4357 96.6756 78.4064 96.2661 78.438 95.859C78.4413 95.4494 78.5154 95.0434 78.657 94.659C78.8077 94.3008 79.0523 93.9899 79.365 93.759C79.8888 93.3829 80.5023 93.1512 81.144 93.087C81.5679 93.0359 81.9952 93.0179 82.422 93.033C82.5786 93.0267 82.7354 93.0368 82.89 93.063C82.735 93.0854 82.5785 93.0955 82.422 93.093C81.9993 93.1014 81.5775 93.1354 81.159 93.195C80.5421 93.2743 79.9551 93.5075 79.452 93.873C79.1633 94.0893 78.9384 94.3795 78.801 94.713C78.6665 95.0802 78.5964 95.468 78.594 95.859C78.5631 96.2507 78.5893 96.6449 78.672 97.029C78.7537 97.3809 78.9474 97.6967 79.224 97.929C79.4758 98.1363 79.799 98.2365 80.124 98.208C80.4073 98.1832 80.6802 98.0895 80.919 97.935C81.2644 97.6959 81.5789 97.4147 81.855 97.098C82.035 96.864 82.119 96.72 82.131 96.729Z" fill="#263238"/>
<path d="M68.799 139.062C66.2475 138.583 63.6257 138.62 61.089 139.173C59.793 139.473 58.479 139.884 57.414 140.673C56.349 141.462 55.479 142.308 55.581 143.64L75.108 143.661C75.108 141.3 71.328 139.5 68.799 139.062Z" fill="#263238"/>
<path d="M90.36 138.975C92.9117 138.496 95.5335 138.535 98.07 139.089C99.369 139.389 100.68 139.8 101.745 140.604C102.81 141.408 103.605 142.323 103.503 143.655L84.051 143.592C84.051 141.219 87.831 139.413 90.36 138.975Z" fill="#263238"/>
<path d="M61.551 54.9718C61.551 54.9718 61.32 54.8758 60.9 54.7108C60.3055 54.4828 59.6893 54.3159 59.061 54.2128C58.1315 54.0564 57.1835 54.0433 56.25 54.1738C55.1046 54.32 53.9996 54.6919 52.9991 55.2682C51.9985 55.8444 51.1222 56.6135 50.421 57.5308C49.8402 58.2743 49.3759 59.1017 49.044 59.9848C48.8173 60.5801 48.6534 61.1975 48.555 61.8268C48.486 62.2708 48.468 62.5228 48.453 62.5198C48.4451 62.4591 48.4451 62.3976 48.453 62.3368C48.4577 62.1632 48.4717 61.99 48.495 61.8178C48.5714 61.179 48.7204 60.5509 48.939 59.9458C49.2615 59.0455 49.7231 58.2013 50.307 57.4438C51.0124 56.5044 51.9009 55.7176 52.9186 55.1309C53.9364 54.5441 55.0625 54.1696 56.229 54.0298C57.178 53.9057 58.1405 53.93 59.082 54.1018C59.714 54.2166 60.331 54.4028 60.921 54.6568C61.0822 54.7228 61.2394 54.7979 61.392 54.8818C61.4482 54.9058 61.5015 54.936 61.551 54.9718Z" fill="#263238"/>
<g opacity="0.3">
<path d="M80.121 64.4158C80.2729 63.3329 80.1724 62.2295 79.8273 61.1918C79.4821 60.1542 78.9017 59.2104 78.1314 58.4343C77.361 57.6581 76.4217 57.0706 75.3866 56.7177C74.3516 56.3648 73.249 56.256 72.165 56.3998C72.165 54.2878 72.16 52.1778 72.15 50.0698C72.15 50.0698 73.776 50.3968 73.806 54.9628C75.0082 54.9088 76.2019 55.1885 77.2551 55.7709C78.3082 56.3533 79.1796 57.2158 79.773 58.2628C81.9 61.9348 80.121 64.4158 80.121 64.4158Z" fill="black"/>
</g>
<path d="M74.661 73.533C74.6536 73.4471 74.6536 73.3608 74.661 73.275C74.661 73.185 74.676 73.083 74.688 72.975C74.7064 72.8348 74.7134 72.6933 74.709 72.552C74.7315 71.6485 74.61 70.7472 74.349 69.882C74.2643 69.5948 74.1641 69.3124 74.049 69.036C73.935 68.736 73.788 68.46 73.641 68.157C73.4769 67.8477 73.2966 67.5473 73.101 67.257C72.999 67.11 72.9 66.957 72.801 66.813L72.447 66.381C71.9335 65.7832 71.3434 65.2556 70.692 64.812C69.9899 64.3418 69.2228 63.977 68.415 63.729C67.5996 63.505 66.7553 63.4039 65.91 63.429C65.122 63.4537 64.3409 63.5849 63.588 63.819L63.057 63.993C62.886 64.056 62.721 64.134 62.556 64.2C62.223 64.329 61.926 64.5 61.626 64.662C61.326 64.824 61.062 65.004 60.813 65.19C60.564 65.376 60.318 65.547 60.114 65.748C59.4326 66.3415 58.8493 67.0391 58.386 67.815C58.3078 67.9326 58.2386 68.056 58.179 68.184C58.125 68.292 58.077 68.382 58.035 68.463C58.0014 68.5424 57.9592 68.6179 57.909 68.688C57.937 68.606 57.9701 68.5259 58.008 68.448L58.137 68.148C58.1918 68.0164 58.2581 67.89 58.335 67.77C58.7809 66.973 59.358 66.257 60.042 65.652C60.2649 65.448 60.4982 65.2558 60.741 65.076C60.993 64.887 61.275 64.719 61.56 64.536C61.845 64.353 62.16 64.191 62.502 64.059C62.667 63.99 62.835 63.912 63.009 63.846L63.546 63.666C64.3102 63.4254 65.1033 63.2892 65.904 63.261C67.6494 63.1796 69.3721 63.682 70.8 64.689C71.4617 65.1414 72.06 65.6801 72.579 66.291L72.936 66.729C73.05 66.879 73.149 67.029 73.236 67.182C73.452 67.482 73.602 67.782 73.779 68.082C73.956 68.382 74.079 68.682 74.181 68.982C74.2963 69.2624 74.3964 69.5488 74.481 69.84C74.7307 70.717 74.8321 71.6296 74.781 72.54C74.7825 72.6828 74.7704 72.8254 74.745 72.966C74.745 73.083 74.715 73.188 74.703 73.266C74.6971 73.3561 74.683 73.4454 74.661 73.533Z" fill="#263238"/>
<path d="M46.593 82.7278C46.538 82.7246 46.4835 82.7145 46.431 82.6978C46.329 82.6708 46.17 82.6438 45.978 82.5778C45.4275 82.4015 44.9006 82.1587 44.409 81.8548C43.6738 81.4081 43.0187 80.8412 42.471 80.1778C41.7877 79.3706 41.288 78.4245 41.0067 77.405C40.7254 76.3856 40.6692 75.3171 40.842 74.2738C40.9718 73.4229 41.2425 72.5996 41.643 71.8378C41.9106 71.3261 42.239 70.8487 42.621 70.4158C42.753 70.2568 42.876 70.1548 42.948 70.0768C42.9849 70.0363 43.0262 70.0001 43.071 69.9688C42.9455 70.1376 42.8113 70.2998 42.669 70.4548C42.3066 70.8961 41.9956 71.3772 41.742 71.8888C41.3626 72.6431 41.1064 73.4534 40.983 74.2888C40.8218 75.3121 40.881 76.358 41.1568 77.3566C41.4325 78.3551 41.9185 79.2832 42.582 80.0788C43.1155 80.7357 43.7517 81.302 44.466 81.7557C44.9465 82.0653 45.4609 82.319 45.999 82.5118C46.38 82.6558 46.596 82.7128 46.593 82.7278Z" fill="#263238"/>
<path d="M35.58 71.7C35.8682 71.6935 36.1559 71.7268 36.435 71.799C37.1181 71.9389 37.7805 72.1658 38.406 72.474C39.032 72.7811 39.6167 73.1662 40.146 73.62C40.3733 73.7965 40.5752 74.0035 40.746 74.235C40.728 74.253 40.491 74.028 40.074 73.704C38.9913 72.8561 37.7438 72.2431 36.411 71.904C35.901 71.769 35.577 71.718 35.58 71.7Z" fill="#263238"/>
<path d="M79.365 67.1788C79.365 67.2058 79.035 67.1038 78.498 67.0078C77.8043 66.8887 77.0971 66.8695 76.398 66.9508C75.6974 67.0394 75.0145 67.2347 74.373 67.5298C73.881 67.7578 73.596 67.9468 73.581 67.9228C73.566 67.8988 73.641 67.8598 73.767 67.7698C73.9433 67.6431 74.1288 67.5298 74.322 67.4308C74.9653 67.0995 75.6619 66.8842 76.38 66.7948C77.0968 66.7087 77.823 66.7442 78.528 66.8998C78.7395 66.9469 78.9479 67.007 79.152 67.0798C79.228 67.1009 79.2999 67.1343 79.365 67.1788Z" fill="#263238"/>
<g opacity="0.3">
<path d="M76.983 65.604C75.8253 65.4019 74.6333 65.602 73.605 66.171C72.7412 64.743 71.4925 63.5874 70.002 62.8366C68.5115 62.0858 66.8396 61.7702 65.178 61.926C61.878 62.286 59.274 64.833 58.257 67.998C59.949 64.842 62.877 63.594 65.964 63.498C69.051 63.402 72.195 65.112 73.566 67.881C74.5303 67.34 75.5978 67.0085 76.6989 66.9083C77.8 66.808 78.9099 66.9411 79.956 67.299C79.1878 66.4109 78.1386 65.8127 76.983 65.604Z" fill="black"/>
</g>
<g opacity="0.3">
<path d="M43.968 69.2998C43.0685 69.3638 42.1971 69.6402 41.4252 70.1065C40.6534 70.5727 40.0032 71.2154 39.528 71.9818C38.3025 71.4277 36.9193 71.3299 35.628 71.7058C37.676 71.9132 39.5681 72.8926 40.92 74.4448C40.8831 73.3856 41.1506 72.338 41.6908 71.4261C42.231 70.5142 43.0213 69.7763 43.968 69.2998Z" fill="black"/>
</g>
<g opacity="0.3">
<path d="M116.145 82.404C114.411 79.482 110.637 77.289 107.241 77.409H107.157C109.857 78.429 112.896 80.562 114.507 83.859C115.811 86.5776 116.255 89.6295 115.779 92.607C117.51 89.676 117.879 85.329 116.145 82.404Z" fill="black"/>
</g>
<path d="M117.117 126.066C117.152 125.822 117.174 125.577 117.183 125.331C117.245 124.613 117.206 123.89 117.066 123.183C116.956 122.689 116.752 122.222 116.466 121.806C116.894 120.861 117.17 119.854 117.285 118.824C117.356 118.44 117.313 118.043 117.162 117.684C116.847 117.084 116.049 116.799 115.311 116.643C113.854 116.333 112.356 116.268 110.877 116.448C110.696 116.455 110.52 116.512 110.37 116.613C110.298 116.694 110.246 116.789 110.216 116.893C110.187 116.997 110.181 117.106 110.199 117.213C110.284 118.287 110.303 119.366 110.256 120.444C109.496 120.725 108.807 121.17 108.237 121.746L108.216 121.767C107.515 122.39 106.773 122.967 105.996 123.492C105.555 123.792 105.279 124.092 105.249 124.461C105.237 124.622 105.27 124.784 105.345 124.929C105.42 125.073 105.533 125.193 105.672 125.277C106.587 125.877 108.642 124.377 108.642 124.377C108.42 125.055 108.118 125.705 107.742 126.312C106.821 127.692 107.544 126.537 106.137 128.64C105.993 128.856 105.537 129.414 105.72 129.999C105.903 130.584 106.347 130.683 106.95 130.452C107.97 130.059 109.305 128.652 110.19 127.926C109.944 128.226 108.75 129.948 108.552 130.263C108.273 130.704 107.994 131.067 108.123 131.436C108.252 131.805 108.783 131.934 109.173 131.904C109.488 131.845 109.776 131.685 109.992 131.448C110.747 130.7 111.456 129.907 112.116 129.075C111.846 129.693 111.216 130.896 111.027 131.544C110.964 131.784 110.787 132.303 110.895 132.528C111.081 132.903 111.624 132.93 112.014 132.774C112.521 132.573 113.214 131.769 113.514 131.313C113.795 130.845 114.03 130.351 114.213 129.837C114.171 130.035 114.113 130.23 114.039 130.419C113.878 130.759 113.76 131.117 113.688 131.487C113.688 131.721 113.421 132.597 113.793 132.834C114.291 133.155 114.717 132.624 114.849 132.462C115.719 131.37 116.22 129.876 116.571 128.862C116.846 127.95 117.028 127.013 117.117 126.066Z" fill="white"/>
<path d="M117.117 126.066C117.117 126.066 117.117 126.135 117.099 126.264L117.024 126.843C116.933 127.587 116.766 128.32 116.526 129.03C116.37 129.492 116.196 130.005 115.965 130.551C115.723 131.151 115.416 131.722 115.05 132.255C114.869 132.58 114.585 132.834 114.243 132.978C114.143 133.003 114.039 133.002 113.939 132.977C113.84 132.951 113.748 132.901 113.673 132.831C113.548 132.658 113.495 132.443 113.523 132.231C113.536 132.03 113.561 131.829 113.598 131.631C113.602 131.583 113.602 131.535 113.598 131.487C113.601 131.433 113.609 131.378 113.622 131.325C113.646 131.223 113.676 131.124 113.709 131.025C113.775 130.827 113.853 130.629 113.937 130.425C114.018 130.232 114.08 130.031 114.12 129.825L114.228 129.855C114.017 130.487 113.713 131.085 113.328 131.628C113.115 131.908 112.878 132.169 112.62 132.408C112.487 132.533 112.342 132.644 112.188 132.741C112.024 132.839 111.841 132.899 111.651 132.918C111.455 132.942 111.256 132.91 111.078 132.825C110.986 132.777 110.908 132.707 110.85 132.621C110.792 132.532 110.764 132.427 110.769 132.321C110.782 132.128 110.817 131.936 110.874 131.751C110.925 131.568 110.976 131.379 111.045 131.199C111.321 130.473 111.699 129.777 112.026 129.048L112.143 129.12C111.678 129.681 111.201 130.26 110.685 130.824C110.424 131.114 110.146 131.388 109.851 131.643C109.696 131.779 109.514 131.882 109.317 131.943C109.112 131.99 108.898 131.99 108.693 131.943C108.478 131.908 108.281 131.802 108.132 131.643C108.061 131.554 108.015 131.449 107.997 131.337C107.979 131.225 107.99 131.11 108.03 131.004C108.105 130.806 108.206 130.618 108.33 130.446C108.438 130.272 108.555 130.104 108.675 129.936L110.115 127.878L110.223 127.986C109.416 128.652 108.663 129.438 107.76 130.086C107.534 130.251 107.29 130.39 107.034 130.503C106.771 130.638 106.471 130.684 106.179 130.635C106.026 130.595 105.892 130.503 105.801 130.374C105.713 130.252 105.65 130.115 105.615 129.969C105.557 129.675 105.603 129.369 105.747 129.105C106.71 127.458 108.063 126.105 108.558 124.362L108.675 124.449C108.282 124.725 107.866 124.965 107.43 125.166C107 125.389 106.522 125.5 106.038 125.49C105.787 125.46 105.556 125.338 105.39 125.148C105.307 125.054 105.244 124.945 105.205 124.826C105.166 124.708 105.151 124.583 105.162 124.458C105.194 124.213 105.307 123.986 105.483 123.813C105.647 123.65 105.828 123.505 106.023 123.381C106.75 122.893 107.443 122.357 108.099 121.776C108.692 121.159 109.417 120.684 110.22 120.387L110.175 120.447C110.224 119.648 110.224 118.846 110.175 118.047C110.175 117.852 110.154 117.657 110.142 117.465C110.117 117.266 110.117 117.064 110.142 116.865C110.163 116.759 110.214 116.661 110.289 116.583C110.365 116.509 110.459 116.456 110.562 116.43C110.747 116.385 110.936 116.356 111.126 116.343C112.518 116.205 113.924 116.282 115.293 116.571C115.92 116.712 116.559 116.904 116.991 117.357C117.196 117.582 117.319 117.87 117.342 118.173C117.359 118.455 117.344 118.737 117.3 119.016C117.168 119.982 116.895 120.923 116.49 121.809V121.77C116.691 122.045 116.848 122.348 116.958 122.67C117.059 122.95 117.132 123.24 117.177 123.534C117.237 123.992 117.253 124.456 117.222 124.917C117.216 125.199 117.196 125.48 117.162 125.76C117.141 125.949 117.126 126.06 117.126 126.06C117.126 126.06 117.126 125.964 117.141 125.76C117.156 125.556 117.183 125.289 117.183 124.917C117.206 124.457 117.185 123.996 117.12 123.54C117.074 123.251 116.999 122.966 116.898 122.691C116.788 122.37 116.631 122.067 116.433 121.791C116.429 121.786 116.427 121.78 116.427 121.773C116.427 121.767 116.429 121.76 116.433 121.755C116.826 120.873 117.09 119.938 117.216 118.98C117.259 118.709 117.272 118.435 117.255 118.161C117.232 117.878 117.115 117.611 116.922 117.402C116.52 116.982 115.899 116.802 115.278 116.658C113.92 116.375 112.527 116.303 111.147 116.445C110.965 116.459 110.785 116.487 110.607 116.529C110.525 116.547 110.45 116.589 110.392 116.649C110.334 116.709 110.295 116.786 110.28 116.868C110.257 117.052 110.257 117.239 110.28 117.423C110.28 117.618 110.301 117.813 110.313 118.023C110.364 118.828 110.364 119.636 110.313 120.441C110.312 120.454 110.307 120.467 110.299 120.477C110.291 120.488 110.28 120.496 110.268 120.501C109.484 120.794 108.776 121.261 108.198 121.866C107.535 122.453 106.833 122.996 106.098 123.489C105.912 123.607 105.74 123.746 105.585 123.903C105.431 124.05 105.332 124.244 105.303 124.455C105.294 124.56 105.307 124.665 105.34 124.764C105.373 124.864 105.426 124.956 105.495 125.034C105.635 125.2 105.832 125.307 106.047 125.334C106.502 125.344 106.953 125.241 107.358 125.034C107.785 124.837 108.192 124.601 108.576 124.329C108.584 124.323 108.594 124.32 108.603 124.318C108.613 124.316 108.623 124.316 108.633 124.318C108.643 124.32 108.652 124.323 108.66 124.329C108.668 124.335 108.676 124.342 108.681 124.35C108.686 124.361 108.689 124.373 108.689 124.385C108.689 124.397 108.686 124.408 108.681 124.419C108.535 124.853 108.36 125.277 108.159 125.688C107.948 126.101 107.706 126.498 107.433 126.873C107.304 127.065 107.157 127.251 107.025 127.437L106.626 128.01L106.236 128.595C106.097 128.785 105.972 128.986 105.864 129.195C105.735 129.426 105.693 129.695 105.744 129.954C105.763 130.078 105.814 130.194 105.893 130.291C105.973 130.387 106.076 130.461 106.194 130.503C106.453 130.543 106.717 130.5 106.95 130.38C107.196 130.271 107.431 130.136 107.649 129.978C108.534 129.354 109.281 128.574 110.103 127.896C110.11 127.889 110.118 127.883 110.127 127.879C110.136 127.875 110.146 127.873 110.155 127.873C110.165 127.873 110.175 127.875 110.184 127.879C110.193 127.883 110.201 127.889 110.208 127.896C110.218 127.91 110.223 127.926 110.223 127.943C110.223 127.959 110.218 127.976 110.208 127.989L108.774 130.032C108.657 130.2 108.54 130.368 108.432 130.542C108.319 130.703 108.226 130.877 108.156 131.061C108.125 131.145 108.115 131.235 108.128 131.323C108.141 131.411 108.177 131.494 108.231 131.565C108.36 131.698 108.528 131.786 108.711 131.817C108.893 131.858 109.081 131.858 109.263 131.817C109.441 131.761 109.604 131.668 109.743 131.544C110.032 131.293 110.306 131.024 110.562 130.74C111.078 130.179 111.555 129.603 112.023 129.042C112.033 129.028 112.048 129.019 112.065 129.016C112.082 129.013 112.1 129.016 112.114 129.025C112.129 129.034 112.14 129.048 112.144 129.065C112.149 129.081 112.148 129.099 112.14 129.114C111.807 129.852 111.429 130.545 111.156 131.256C111.091 131.433 111.035 131.613 110.988 131.796C110.931 131.971 110.897 132.153 110.886 132.336C110.883 132.418 110.904 132.498 110.947 132.568C110.989 132.637 111.052 132.692 111.126 132.726C111.281 132.8 111.454 132.827 111.624 132.804C111.969 132.753 112.286 132.586 112.524 132.33C112.778 132.098 113.01 131.844 113.22 131.571C113.603 131.038 113.906 130.452 114.12 129.831C114.126 129.819 114.136 129.81 114.148 129.804C114.16 129.799 114.174 129.798 114.186 129.801C114.199 129.805 114.21 129.813 114.218 129.824C114.226 129.835 114.229 129.848 114.228 129.861C114.186 130.076 114.122 130.286 114.036 130.488C113.952 130.68 113.874 130.875 113.808 131.07C113.774 131.168 113.746 131.269 113.724 131.37C113.711 131.416 113.704 131.463 113.703 131.511C113.7 131.564 113.693 131.616 113.682 131.667C113.652 131.868 113.616 132.063 113.607 132.267C113.583 132.447 113.626 132.629 113.727 132.78C113.79 132.838 113.866 132.879 113.949 132.9C114.031 132.922 114.118 132.923 114.201 132.903C114.521 132.765 114.787 132.526 114.957 132.222C115.323 131.696 115.631 131.132 115.875 130.539C116.109 129.996 116.289 129.486 116.448 129.039C116.693 128.334 116.87 127.606 116.976 126.867C117.015 126.618 117.045 126.429 117.066 126.291C117.087 126.153 117.117 126.066 117.117 126.066Z" fill="#263238"/>
<path d="M116.487 121.83C116.469 121.851 116.187 121.596 115.671 121.254C115.006 120.815 114.262 120.51 113.481 120.354C112.694 120.221 111.89 120.221 111.102 120.354C110.502 120.453 110.124 120.552 110.118 120.525C110.198 120.482 110.282 120.45 110.37 120.429C110.605 120.355 110.843 120.294 111.084 120.246C111.884 120.081 112.707 120.07 113.511 120.213C114.557 120.423 115.523 120.922 116.301 121.653C116.427 121.752 116.493 121.821 116.487 121.83Z" fill="#263238"/>
</svg>
