<svg width="512" height="512" viewBox="0 0 512 512" fill="none" xmlns="http://www.w3.org/2000/svg">
<g clip-path="url(#clip0_164_34)">
<path fill-rule="evenodd" clip-rule="evenodd" d="M261.4 0C279.1 0 282.6 0.3 291 2.4C296.2 3.7 303.2 5.8 306.5 7.1C309.8 8.5 315.4 11.2 319 13.2C322.6 15.2 328.2 19 331.5 21.7C334.8 24.4 340.4 28.2 344 30.2C347.6 32.3 353.1 35.9 356.2 38.5C359.4 41 364.1 45.8 366.7 49.1C369.4 52.5 372.6 57.1 373.8 59.4C375.1 61.6 377.1 65.7 378.2 68.5C379.3 71.2 380.9 76 381.7 79C382.9 83.1 383.3 92.4 383.7 116.5C384.1 140.7 384.5 148.9 385.5 150C386.2 150.8 387.7 153.3 388.8 155.5C389.9 157.7 391.1 161.1 391.5 163C391.9 164.9 392.2 169 392.1 172C392.1 175 391.5 179.1 390.9 181C390.3 182.9 388.4 186.4 386.9 188.8C384.3 192.5 383.8 194.6 382.5 206.7C381.7 214.3 379.9 225.9 378.6 232.5C377.2 239.1 374.2 249.9 372 256.5C369.7 263.1 365.9 272.5 363.5 277.5C361.1 282.4 356.8 290.1 353.8 294.5C350.9 298.9 345.8 305.4 342.4 309C337 314.6 335.7 315.5 332.6 315.5C330.4 315.5 328.3 314.8 327 313.5C325.6 312.1 324.2 307.6 319.5 283.9L307 293V305.5C307 312.4 307.4 319.1 308 320.5C308.5 321.9 310 323.7 311.2 324.5C312.7 325.4 325.9 327.6 348.5 330.4C367.7 332.9 386 335.7 389 336.6C392 337.5 397.4 339.7 401 341.5C404.6 343.3 410.4 347 413.9 349.6C417.5 352.3 422.8 357.4 425.7 361C428.7 364.6 432.8 370.9 435 375C437.1 379.1 439.9 386.1 441.2 390.5C443.4 398.3 443.4 399.9 444 512H427L426.7 456.2C426.4 403.3 426.3 400.2 424.3 394C423.2 390.4 421.3 385.5 420 383C418.7 380.5 416.3 376.7 414.6 374.4C412.9 372.2 408.8 368 405.5 365.1C402.2 362.2 396.3 358.3 392.5 356.5C388.6 354.6 383.2 352.6 380.5 352C377.7 351.4 370.8 350.4 365 349.6C359.2 348.9 354.4 348.3 354.2 348.4C354.1 348.4 360.8 363.8 369 382.5C377.3 401.2 384 417.5 384 418.8C384 420 382.9 422.2 379.2 426.5L353.1 426.8C338.7 426.9 327 427.2 327 427.5C327 427.8 328.4 433.5 330.1 440.3C332.9 451.3 333.1 452.8 331.9 455.5C330.7 458.1 326 460.8 265 491.5V512H247V491.5L214.2 475C186 460.8 181.3 458.1 180.1 455.5C178.9 452.8 179.1 451.3 181.9 440.3C183.6 433.5 185 427.8 185 427.5C185 427.2 173.3 426.9 132.8 426.5L130.4 423.8C129.1 422.2 128 420 128 418.8C128 417.5 134.7 401.2 143 382.5C151.2 363.8 157.9 348.4 157.8 348.4C157.6 348.3 152.8 348.9 147 349.6C141.2 350.4 134.3 351.4 131.5 352C128.8 352.6 123.3 354.6 119.5 356.5C115.6 358.3 110 362 106.8 364.7C103.7 367.3 99.6 371.5 97.7 374C95.8 376.5 93.3 380.5 92 383C90.7 385.5 88.8 390.4 87.7 394C85.7 400.2 85.6 403.3 85 512H68L68.3 455.2C68.6 399.9 68.6 398.3 70.8 390.5C72.1 386.1 74.9 379.1 77 375C79.2 370.9 83.3 364.6 86.3 361C89.2 357.4 94.5 352.3 98.1 349.6C101.6 347 107.4 343.3 111 341.5C114.6 339.7 120 337.5 123 336.6C126 335.7 144.3 332.9 163.5 330.4C186.1 327.6 199.3 325.4 200.8 324.5C202 323.7 203.4 321.9 204 320.5C204.5 319.1 205 312.4 205 293L192.5 283.9L190.8 292.7C189.8 297.5 188.6 303.9 188 306.8C187.2 311.1 186.4 312.4 183.8 314C181.6 315.3 179.6 315.8 178 315.4C176.6 315.1 174.4 313.9 173.2 312.7C171.9 311.5 167.1 304.9 162.5 298C157.9 291.1 152.1 281.7 149.6 277C147.1 272.3 143.2 264.2 141 259C138.7 253.8 135.3 245 133.4 239.5C131.5 234 128.6 224.3 127 218C125.5 211.7 123.5 202.4 122.7 197.5C121.8 192.5 120.6 183.3 119.9 177C119.1 169.7 118.9 159.2 119.3 148.5C119.7 139.1 120.6 127.4 121.4 122.5C122.2 117.5 123.7 109.9 124.9 105.5C126 101.1 128 94.6 129.4 91C130.7 87.4 133.5 81 135.4 76.8C137.4 72.5 141.6 65.1 144.8 60.2C148.1 55.4 154.5 47.5 159.1 42.6C163.7 37.7 171.3 30.9 176 27.4C180.7 23.9 189.2 18.6 195 15.6C200.8 12.6 209.5 8.8 214.5 7.2C219.4 5.5 227.3 3.5 232 2.5C236.7 1.6 240.7 0.7 240.9 0.5C241.1 0.2 250.4 0 261.4 0ZM225.5 21.6C220.5 23 212.4 26.1 207.5 28.4C202.5 30.7 195.1 34.8 191 37.5C186.9 40.2 179.2 46.7 173.9 52C168.7 57.2 162.5 64.2 160.3 67.5C158.1 70.8 154.2 77.5 151.7 82.5C149.2 87.4 145.8 95.5 144.2 100.5C142.5 105.4 140.2 114.4 139.1 120.5C137.9 126.5 136.6 137.7 136.2 145.3C135.8 152.8 135.8 159 136.3 159C136.7 159 140.7 157.7 145.3 156.1C149.8 154.5 158.4 151.1 164.5 148.5C170.5 145.9 179.8 141.6 185 139C190.2 136.4 200.6 130.8 208 126.5C215.4 122.2 228.7 114 237.5 108.2C246.3 102.5 258.4 94.1 264.5 89.6C270.5 85.2 278.6 79.1 282.5 76.1C286.3 73 294.4 66.4 300.5 61.3C306.6 56.2 312.8 51.8 314.5 51.5C316.8 50.9 318.2 51.3 320.5 53.3C323.2 55.4 323.7 56.7 324.8 64.6C325.6 69.5 327.3 77.3 328.7 82C330 86.7 333 94.8 335.2 100C337.4 105.2 341 112.9 343.2 117C345.4 121.1 348.9 127.1 350.9 130.3C352.9 133.6 355.4 136.3 356.5 136.5C357.6 136.7 360.4 137 362.8 137.2L367.2 137.5C366.4 87.3 366.3 86.3 363.7 78.8C362.2 74.5 359.8 69.1 358.3 66.8C356.9 64.4 354.3 60.8 352.6 58.6C350.9 56.5 346.8 52.8 343.5 50.3C340.2 47.8 335 44.5 332 42.9C329 41.3 323.8 37.7 320.5 35C317.2 32.2 311.6 28.4 308 26.6C304.4 24.7 297.4 21.9 292.5 20.4C284.4 18 281.7 17.7 266 17.4C256.4 17.3 245.3 17.6 241.5 18.1C237.6 18.6 230.4 20.2 225.5 21.6ZM283 97.3C275.6 102.9 262.1 112.5 253 118.6C243.9 124.7 230.5 133.1 223.2 137.4L210 145C215.8 149.4 218.3 151.8 219.3 153.3C220.2 154.8 221.3 157.7 221.6 159.8C222 161.8 221.8 165.1 221.1 167C220.5 168.9 218.6 171.9 216.8 173.7C215 175.4 212.3 177.4 210.8 177.9C209.2 178.5 206.4 179 204.5 179C202.6 179 199.2 178.1 197 177C194.8 175.9 192 173.5 190.8 171.8C189.3 169.5 188.5 166.7 188.3 162.8C188.1 159.6 187.9 157 187.8 157C187.6 157 184 158.5 179.8 160.5C172.1 164 172 164 172 167.8C172 169.8 172.9 182.8 174 196.5C175.2 211.3 176.9 224.8 178.1 229.5C179.1 233.9 181.8 241.1 184 245.5C186.1 249.9 190.5 256.6 193.8 260.5C197 264.3 202.3 269.7 205.6 272.3C208.8 274.9 214.9 278.8 219 281C223.1 283.1 230.1 285.9 234.5 287.2C241.1 289.1 244.9 289.5 256 289.5C267.1 289.5 270.9 289.1 277.5 287.2C281.9 285.9 288.9 283.1 293 281C297.1 278.8 303.2 274.9 306.4 272.3C309.7 269.7 315 264.3 318.3 260.5C321.5 256.6 325.9 249.9 328.1 245.5C330.2 241.1 332.9 233.9 334 229.5C335.5 223.5 336.5 213.5 338 189.5C339.1 171.9 340.2 155.3 340.4 152.5C340.9 147.8 340.5 146.9 335.3 138C332.2 132.8 327.3 123.5 324.4 117.5C321.5 111.4 317.6 102.2 315.7 97C313.8 91.8 311.8 85.1 311.3 82.3C310.8 79.4 309.9 77 309.4 77C308.9 77 305.8 79.3 302.5 82.1C299.2 84.8 290.4 91.7 283 97.3ZM356.6 167.3C356.2 174.5 355.7 182.3 355.3 184.5L354.7 188.5C362.3 187.3 365.8 186.1 367.5 185C369.1 184 371.5 181.4 372.7 179.3C374.2 176.8 375 173.8 375 170.5C375 166.9 374.4 164.5 372.8 162C371.5 160.1 368.9 157.5 367 156.3C365.1 155 362.1 154 360.4 154H357.2L356.6 167.3ZM138.3 176.8C138.2 176.9 138.9 178.5 140 180.3C141 182.1 143.2 184.3 144.7 185.2C146.3 186.2 149.5 187.3 151.8 187.7L156.1 188.6C156 183.1 155.8 179.2 155.5 176.3C155.2 173.4 154.7 171.1 154.3 171.1C153.9 171.2 150.2 172.4 146.1 173.9C141.9 175.4 138.4 176.7 138.3 176.8ZM143.1 212.6C144.2 216.9 146.7 225.5 148.7 231.6C150.7 237.6 154.6 247.7 157.5 254.1C160.3 260.4 165.2 269.9 168.3 275.3C171.5 280.7 174.3 284.9 174.5 284.8C174.8 284.7 175.7 280.9 176.6 276.6L178.2 268.6C172 259.2 168.7 253.4 167 249.6C165.2 245.7 162.8 238.5 161.5 233.6C160.3 228.6 158.9 220.2 158.4 214.9L157.7 205.3C148.3 204.2 144.5 203.5 143.3 203C141.6 202.4 141 202.5 141 203.3C141.1 204 142 208.1 143.1 212.6ZM354.1 205.2C353.2 220.2 351.8 228.6 350.6 233.6C349.3 238.5 346.9 245.7 345.1 249.6C343.4 253.4 340.2 259.2 338 262.6L334 268.6C336.8 282.9 337.8 287.1 338.1 287.1C338.3 287.1 339.8 285.1 341.2 282.8C342.7 280.5 345.8 274.7 348.1 270.1C350.4 265.4 353.9 256.8 355.8 251.1C357.6 245.3 360 236.9 361 232.6C362 228.1 363.4 221.2 364 217.1C364.6 212.9 365.4 208.3 365.6 206.8C366 204.4 365.7 204.1 363.8 204.2C362.6 204.3 359.9 204.6 357.8 204.8L354.1 205.2ZM221.8 312.9C221.5 323.3 221.2 325.1 218.8 329.6C217.3 332.3 214.2 336.1 211.8 337.9C209.5 339.7 206.3 341.5 204.7 341.9C202.9 342.3 202.1 343.1 202.3 344.1C202.6 344.9 208.4 358.1 215.2 373.3L227.6 401.1H284.6C304.3 356.9 310.1 343.7 310.1 343.3C310.1 342.9 308.9 342.3 307.3 341.9C305.8 341.5 302.6 339.7 300.3 337.9C297.6 335.8 294.9 332.5 293.3 329.1C290.9 324.2 290.5 322.2 290.3 312.3L290.1 301.1C283.5 303.5 277.7 304.8 273.1 305.6C268.4 306.4 260.7 307.1 256.1 307.1C251.4 307.1 243.7 306.4 239.1 305.6C234.4 304.8 228.7 303.5 226.4 302.7L222.2 301.2L221.8 312.9ZM163.6 378.1C156.2 394.9 150.1 408.9 150 409.4C150 409.8 161.2 410.1 174.8 410.1C198.2 410.1 199.6 410.2 201.8 412.1C203 413.2 204.3 414.9 204.5 415.9C204.8 416.8 203.5 424 201.5 431.9C199.6 439.7 198 446.6 198 447.1C198 447.7 206.6 452.4 217 457.6C227.5 462.8 236.4 467 236.9 466.9C237.4 466.7 225.7 439.3 210.9 405.9C189.9 358.4 183.6 345.1 182.2 345.1C181.3 345.1 179.7 345.7 178.8 346.4C177.9 347 171.1 361.3 163.6 378.1ZM275.1 466.9C275.6 467 284.6 462.8 295 457.6C305.5 452.4 314 447.7 314 447.1C314 446.6 312.4 439.7 310.5 431.9C308.5 424 307.2 416.8 307.5 415.9C307.8 414.9 309 413.2 310.3 412.1C312.4 410.2 313.8 410.1 337.3 410.1C350.9 410.1 362 409.8 362 409.4C362 408.9 355.9 394.9 348.4 378.1C340.9 361.3 334.5 347.3 334.2 346.9C333.8 346.5 332.4 346 331 345.6C328.4 345 328.1 345.7 301.3 405.8C286.4 439.2 274.6 466.7 275.1 466.9ZM245.8 442.4C251.1 454.4 255.7 464.2 256 464.2C256.3 464.2 260.9 454.4 266.3 442.4C271.6 430.4 276 420 276 419.4C276 418.4 271.3 418.1 256 418.1C240.7 418.1 236 418.4 236 419.4C236 420 240.4 430.4 245.8 442.4ZM307 145.1C308.9 145.1 312.4 146 314.8 147.1C317.8 148.6 319.8 150.4 321.7 153.9C323.9 157.7 324.3 159.5 323.9 163.6C323.6 166.5 322.5 170 321.2 171.9C320 173.6 317.2 176 315 177.1C312.8 178.2 309.4 179.1 307.5 179.1C305.6 179.1 302.8 178.6 301.3 178C299.8 177.5 297 175.5 295.2 173.8C293.4 172 291.5 169 290.9 167.1C290.3 165.2 290.1 161.8 290.4 159.6C290.8 157.1 292.2 154.2 294.3 151.9C296 149.8 298.9 147.5 300.5 146.6C302.2 145.8 305.1 145.1 307 145.1ZM249.9 165.1C250.3 165.1 253.1 167.7 262 176.6L243.5 194.9L261 206.1L256.3 213.2C253.4 217.4 251 220 250.3 219.7C249.6 219.3 243.6 215.5 237 211.1C230.4 206.7 224.3 202.1 223.5 200.9C222.7 199.6 221.9 197.3 221.8 195.7C221.7 193.3 223.7 190.8 235.5 179C243.1 171.4 249.6 165.1 249.9 165.1ZM277.3 223.1C277.7 223.1 279.6 226.3 281.5 230.1C283.4 234 285 237.3 285 237.6C285 237.9 282.9 239.1 280.3 240.3C277.7 241.4 272.6 243.3 269 244.3C265.3 245.4 257.5 246.5 239 247.6V230.6L249.8 229.9C256.6 229.5 262.9 228.5 267 227.1C270.6 225.9 274.2 224.5 275 224C275.8 223.6 276.9 223.1 277.3 223.1Z" fill="#C42A57"/>
</g>
<defs>
<clipPath id="clip0_164_34">
<rect width="376" height="512" fill="white" transform="translate(68)"/>
</clipPath>
</defs>
</svg>
