<svg width="512" height="512" viewBox="0 0 512 512" fill="none" xmlns="http://www.w3.org/2000/svg">
<g clip-path="url(#clip0_164_26)">
<path fill-rule="evenodd" clip-rule="evenodd" d="M255.7 0C265.2 0 274.9 0.4 277.3 0.9C279.6 1.4 284.6 2.4 288.5 3C292.3 3.7 299.8 5.6 305 7.2C310.2 8.9 317.1 11.5 320.3 13.1C323.4 14.7 328.4 17.5 331.3 19.4C334.1 21.2 339.6 25.6 343.4 29.1C347.2 32.6 352.2 38 354.5 41C356.8 44 360.5 49.6 362.7 53.5C364.9 57.3 368.4 64.8 370.5 70C372.6 75.2 375.5 84.4 377 90.5C378.6 96.5 380.5 107.1 381.4 114C382.3 120.9 383.3 131.4 383.6 137.5C384 143.9 384.8 149.1 385.5 150C386.2 150.8 387.7 153.3 388.8 155.5C389.9 157.7 391.1 161.1 391.5 163C391.9 164.9 392.2 169 392.1 172C392.1 175 391.5 179.1 390.9 181C390.3 182.9 388.4 186.4 384 193L384.5 335.2L390 336.9C393 337.9 398.6 340.3 402.5 342.3C406.3 344.3 412.4 348.3 416 351.3C419.6 354.2 424.7 359.5 427.4 363.1C430 366.6 433.8 372.6 435.7 376.5C437.7 380.3 440.2 386.9 441.3 391C443.3 398.1 443.4 401.3 444 512H427L426.7 456.3C426.4 403.3 426.3 400.2 424.3 394C423.2 390.4 421.3 385.5 420 383C418.7 380.5 416.2 376.5 414.3 374C412.4 371.5 408.3 367.3 405.2 364.7C402 362 396.3 358.4 392.5 356.5C388.6 354.6 383.5 352.7 381 352.1C378.5 351.6 369.3 350.2 360.5 349.1C351.7 347.9 343.7 347 342.8 347C341.1 347 341 351.6 341 512H324V476C324 456.2 323.8 440 323.5 440C323.2 440 318.4 441.4 312.8 443C307.1 444.7 297.5 447.1 291.5 448.3C281.9 450.2 277.4 450.5 256 450.5C234.6 450.5 230.1 450.2 220.5 448.3C214.4 447.1 204.9 444.7 199.3 443C193.6 441.4 188.8 440 188.5 440C188.2 440 188 456.2 188 512H171V429.5C171 351.6 170.9 347 169.3 347C168.3 347 160.3 347.9 151.5 349.1C142.7 350.2 133.5 351.6 131 352.1C128.5 352.7 123.3 354.6 119.5 356.5C115.6 358.4 110 362 106.8 364.7C103.7 367.3 99.6 371.5 97.7 374C95.8 376.5 93.3 380.5 92 383C90.7 385.5 88.8 390.4 87.7 394C85.7 400.2 85.6 403.3 85 512H68L68.3 455.3C68.6 401.3 68.7 398.1 70.7 391C71.8 386.9 74.3 380.3 76.3 376.5C78.2 372.6 82 366.6 84.6 363.1C87.3 359.5 92.4 354.2 96 351.3C99.6 348.3 105.6 344.3 109.5 342.3C113.3 340.3 119 337.9 127.5 335.2L127.3 326.4C127.1 321.5 126.5 296.8 125.9 271.5C125.2 246.2 125 207.1 125.3 184.5C125.7 161 126.6 136.3 127.5 126.5C128.3 117.1 129.5 105.9 130.1 101.5C130.7 97.1 132.1 90.1 133.1 86C134.2 81.9 136.4 75.6 138.1 72C139.8 68.4 144 61.2 147.4 56C150.9 50.8 157.3 42.7 161.6 38.1C166 33.5 172.9 27.2 177 24.1C181.1 21 188.1 16.6 192.5 14.3C196.9 12 204.5 8.8 209.5 7.1C214.4 5.5 222.8 3.4 228 2.5C233.2 1.6 237.7 0.6 237.9 0.4C238.1 0.2 246.1 0 255.7 0ZM223 21.1C218.3 22.2 210.4 25.1 205.5 27.4C200.5 29.7 193.6 33.6 190 36C186.4 38.4 180.1 43.8 176 47.9C171.8 52.1 165.4 60 161.8 65.5C158.1 71 154 78 152.7 81C151.3 84 149.5 89.9 148.7 94C147.8 98.1 146.7 104.9 146.1 109C145.5 113.1 144.5 124.8 143.8 135C142.9 147.6 142.5 173.9 142.7 217.5C142.7 252.7 143.2 292.8 143.7 306.7C144.1 320.5 144.7 332 145 332.3C145.3 332.5 157.4 331.2 172 329.4C188.7 327.2 199.3 325.4 200.8 324.5C202 323.7 203.4 321.9 204 320.5C204.5 319.1 205 312.4 205 305.5V293C194.5 285.4 188.8 280.3 185.4 276.8C182 273.4 177.1 267.1 174.4 263C171.7 258.9 168 252.1 166.3 248C164.5 243.9 162.2 236.7 161.1 232C160 227.3 158.4 215.2 157.6 205C156.7 194.8 155.5 183.8 154.9 180.5C154.3 177.2 153.9 168.8 153.9 161.8C154 153.1 154.4 148.1 155.4 146.3C156.1 144.7 158 142.4 159.6 141C161.2 139.6 164.3 137.8 166.5 137C168.7 136.3 176.8 132.3 184.5 128.2C192.2 124.1 204.6 117 212 112.4C219.4 107.9 231.3 100 238.5 95C245.6 89.9 254 83.7 257 81.1C260 78.6 266.5 72.9 271.4 68.5C276.3 64.1 283 57.1 286.4 53C289.7 48.9 293.1 45 294 44.3C294.8 43.6 296.8 43 298.5 43C300.1 42.9 302.5 43.7 303.7 44.7C305.1 45.8 307.7 51.4 310.6 59.5C313.1 66.6 317.5 77.4 320.2 83.5C322.9 89.5 327.4 98.5 330.2 103.5C333 108.4 338.3 116.8 342 122C345.7 127.2 350 132.6 351.5 134C353.6 136 355.4 136.6 360.3 136.8L366.5 137.2C365.4 122.7 364.6 115.1 364 111C363.4 106.9 361.8 99.2 360.5 94C359.2 88.8 357.1 81.6 355.7 78C354.4 74.4 352.3 69.5 351 67C349.8 64.5 347 59.8 344.8 56.5C342.6 53.2 338.5 48.1 335.6 45.2C332.8 42.2 327.8 37.9 324.5 35.5C321.2 33.1 315.1 29.6 311 27.6C306.9 25.6 299.2 22.9 294 21.6C288.8 20.3 279.9 18.7 274.3 18.1C268.6 17.5 259.8 17.1 254.8 17.1C249.7 17.2 242.3 17.7 238.5 18.1C234.6 18.6 227.7 20 223 21.1ZM275.5 87.9C270.5 92.2 262.4 98.7 257.5 102.5C252.5 106.2 243.5 112.5 237.5 116.5C231.4 120.4 222.1 126.4 216.7 129.6C211.3 132.8 206.9 135.8 207 136.3C207 136.7 234.6 137 268.3 137C302 137 329.9 136.8 330.3 136.5C330.7 136.2 329.7 134.3 328.1 132.3C326.5 130.2 322.7 124.4 319.7 119.5C316.7 114.5 312.1 106.2 309.5 101C306.9 95.8 302.7 86.5 300.3 80.5C297.8 74.4 295.7 69.4 295.6 69.3C295.4 69.2 292.9 71.6 289.9 74.6C286.9 77.7 280.4 83.7 275.5 87.9ZM171.2 165.3C171.6 173.2 172.2 177.4 173.4 179.5C174.3 181.1 176.7 183.6 178.7 185C182.3 187.4 182.8 187.5 200.5 187.5C218.2 187.5 218.7 187.4 222.3 185C224.3 183.6 226.8 180.9 227.9 179C229.6 176.1 229.9 173.6 230 164.7V154H220C221.7 159.8 221.9 163.2 221.6 165.2C221.3 167.4 219.6 170.5 217.8 172.7C216 174.7 213 176.9 211.3 177.7C209.5 178.4 206.4 179 204.5 179C202.6 179 199.2 178.1 197 177C194.8 175.9 192 173.5 190.8 171.7C189.5 169.8 188.4 166.4 188.2 163.5C187.9 160.7 188.2 157.5 188.9 156.2L190 154H170.7L171.2 165.3ZM247.2 177.6C244 189.2 241.3 198.9 241.2 199.1C241.1 199.4 244.9 200.9 249.8 202.5L258.7 205.5C254.7 217.6 253 221.1 252.5 221.1C251.9 221.1 245.9 219.2 239 216.9C231.4 214.3 225.6 211.8 224.2 210.4C223 209.1 222 207.3 222 206.3C222 204.7 220.4 204.5 201.7 204.5C188.1 204.5 180.3 204.1 178 203.3C176.1 202.6 174.4 202.2 174.4 202.3C174.3 202.4 174.7 206.8 175.2 212C175.7 217.3 176.9 225.1 178 229.5C179.1 233.9 181.8 241.1 184 245.5C186.1 249.9 190.5 256.7 193.7 260.5C197 264.4 202.3 269.7 205.5 272.3C208.8 275 214.9 278.9 219 281C223.1 283.2 230.1 285.9 234.5 287.2C241.1 289.1 244.9 289.5 256 289.5C267.1 289.5 270.9 289.1 277.5 287.2C281.9 285.9 288.9 283.2 293 281C297.1 278.9 303.2 275 306.4 272.3C309.7 269.7 315 264.4 318.3 260.5C321.5 256.7 325.9 249.9 328 245.5C330.2 241.1 332.9 233.9 334 229.5C335.1 225.1 336.3 216.3 336.7 209.8C337.2 203.3 337.3 198.1 337 198.1C336.7 198.1 333.6 199.6 330 201.3L323.5 204.5C282.6 204.5 282.4 204.5 276.5 201.7C273.2 200.2 268.6 197.1 266.2 194.7C263.9 192.4 260.8 187.8 259.3 184.5C256.9 179.3 256.5 177 256.2 166.3C256 159.5 255.4 154 254.9 154C254.4 154 253.7 154.6 253.5 155.3C253.3 156 250.5 166 247.2 177.6ZM273 163.8C273 171.1 273.5 174.6 274.9 177.5C275.9 179.7 277.6 182.3 278.6 183.3C279.6 184.3 282.3 185.7 284.5 186.5C287.3 187.5 292.7 188 303 188C313.2 188 318.7 187.5 321.5 186.5C323.7 185.7 326.3 184.3 327.4 183.3C328.4 182.3 330.1 179.7 331.1 177.5C332.5 174.6 332.9 171.1 333 163.8V154C322.1 154 322 154.1 323.1 156.3C323.7 157.5 324.1 160.8 323.8 163.5C323.6 166.5 322.5 169.9 321.2 171.8C320 173.6 317.2 175.9 315 177C312.8 178.1 309.4 179 307.5 179C305.6 179 302.5 178.4 300.7 177.7C298.9 177 296 174.7 294.2 172.7C292.4 170.6 290.7 167.5 290.4 165.3C290 163.2 290.3 159.9 290.9 157.8L292 154H273V163.8ZM356.6 167.3C356.2 174.6 355.6 182.4 355.3 184.6L354.7 188.6C362.3 187.4 365.8 186.2 367.5 185.1C369.1 184.1 371.5 181.5 372.7 179.4C374.1 176.9 374.9 173.9 375 170.6C375 167 374.4 164.6 372.7 162.1C371.5 160.2 368.9 157.6 367 156.4C365 155.1 362.1 154.1 360.3 154.1H357.2L356.6 167.3ZM354.1 205.2C353.1 220.2 351.8 228.6 350.6 233.5C349.3 238.5 346.7 245.9 344.8 250C342.9 254.2 339.4 260.5 337 264C334.6 267.6 329.9 273.4 326.6 276.9C323.2 280.4 317.5 285.4 313.8 288.1L307 293C307 312.4 307.5 319.2 308 320.5C308.6 321.9 310 323.7 311.3 324.5C312.7 325.5 322.5 327.1 337.5 329C350.7 330.7 362.8 332.3 364.3 332.5L367 333V204C362.8 204.3 359.8 204.6 357.8 204.8L354.1 205.2ZM221.8 312.9C221.5 323.3 221.1 325.1 218.7 329.6C217.2 332.3 214.1 336 211.8 337.9C209.4 339.7 206 341.6 204 342.1C202.1 342.6 197.8 343.4 194.5 343.8L188.5 344.6V421.5C196.3 424.4 202.6 426.3 207.5 427.7C212.5 429.1 221.9 431 228.5 432.1C236.7 433.4 245.5 434 256 434C266.6 434 275.4 433.4 283.5 432.1C290.1 431 299.6 429.1 304.5 427.7C309.5 426.3 315.8 424.4 318.5 423.4L323.5 421.5V344.6C314.2 343.4 310 342.6 308 342.1C306.1 341.6 302.6 339.7 300.2 337.9C297.6 335.8 294.9 332.5 293.2 329.1C290.9 324.2 290.5 322.2 290.3 312.3L290 301.1C283.4 303.5 277.7 304.8 273 305.6C268.4 306.4 260.7 307.1 256 307.1C251.4 307.1 243.7 306.4 239 305.6C234.4 304.8 228.6 303.5 226.3 302.7L222.1 301.2L221.8 312.9ZM277.3 223.1C277.7 223.1 279.7 226.3 281.6 230.1C283.5 234 285.1 237.3 285.1 237.6C285.1 237.9 282.9 239.1 280.3 240.3C277.7 241.4 272.7 243.3 269.1 244.3C265.3 245.4 257.6 246.5 239.1 247.6V230.6L249.8 229.9C256.6 229.5 263 228.5 267.1 227.1C270.7 225.9 274.3 224.5 275.1 224C275.9 223.6 276.9 223.1 277.3 223.1Z" fill="#C42A57"/>
</g>
<defs>
<clipPath id="clip0_164_26">
<rect width="376" height="512" fill="white" transform="translate(68)"/>
</clipPath>
</defs>
</svg>
