<svg width="512" height="512" viewBox="0 0 512 512" fill="none" xmlns="http://www.w3.org/2000/svg">
<g clip-path="url(#clip0_164_30)">
<path fill-rule="evenodd" clip-rule="evenodd" d="M255 0.100115C265 0.000115376 271.2 0.500115 279 2.10012C284.8 3.20012 292.9 5.30012 297 6.70012C301.1 8.10012 309 11.5001 314.5 14.4001C320 17.2001 327.9 22.0001 332 25.1001C336.1 28.2001 342.6 33.8001 346.4 37.6001C350.2 41.4001 355.8 47.9001 358.9 52.0001C362 56.1001 366.8 64.0001 369.6 69.5001C372.5 75.0001 375.9 82.9001 377.3 87.0001C378.7 91.1001 380.6 97.9001 381.5 102C382.6 106.9 383.4 116.2 383.7 129C384.1 142.7 384.6 148.9 385.5 150C386.2 150.8 387.7 153.3 388.8 155.5C389.9 157.7 391.1 161.1 391.5 163C391.9 164.9 392.2 169 392.1 172C392.1 175 391.5 179.1 390.9 181C390.3 182.9 388.4 186.4 384 193L384.1 284.5L379 290H345.2C316.8 290 311.1 290.2 309.2 291.5C307.1 292.9 307 293.7 307 305.5C307 312.4 307.4 319.1 308 320.5C308.5 321.9 310 323.7 311.2 324.5C312.7 325.4 325.9 327.6 348.5 330.4C367.8 332.9 386 335.7 389 336.6C392 337.5 397.4 339.7 401 341.5C404.6 343.3 410.4 347 413.9 349.6C417.5 352.3 422.8 357.4 425.7 361C428.7 364.6 432.8 370.9 435 375C437.1 379.1 439.9 386.1 441.2 390.5C443.4 398.3 443.4 399.9 444 512H427L426.7 456.2C426.4 403.3 426.3 400.2 424.3 394C423.2 390.4 421.3 385.5 420 383C418.7 380.5 416.2 376.5 414.3 374C412.4 371.5 408.3 367.3 405.2 364.7C402 362 396.3 358.3 392.5 356.5C388.6 354.6 383.2 352.6 380.5 352C377.7 351.4 370.8 350.4 365 349.6C359.2 348.9 354.4 348.3 354.2 348.4C354.1 348.4 360.8 363.8 369 382.5C377.3 401.2 384 417.5 384 418.8C384 420 382.9 422.2 379.2 426.5L353.1 426.8C338.7 426.9 327 427.2 327 427.5C327 427.8 328.4 433.5 330.1 440.3C332.9 451.3 333.1 452.8 331.9 455.5C330.7 458.1 326 460.8 265 491.5V512H247V491.5L214.2 475C186 460.8 181.3 458.1 180.1 455.5C178.9 452.8 179.1 451.3 181.9 440.2C183.6 433.5 185 427.8 185 427.5C185 427.2 173.3 426.9 132.8 426.5L130.4 423.8C129.1 422.2 128 420 128 418.8C128 417.5 134.7 401.2 143 382.5C151.2 363.8 157.9 348.4 157.8 348.4C157.6 348.3 152.8 348.9 147 349.6C141.2 350.4 134.3 351.4 131.5 352C128.8 352.6 123.3 354.6 119.5 356.5C115.6 358.3 110 362 106.8 364.7C103.7 367.3 99.6 371.5 97.7 374C95.8 376.5 93.3 380.5 92 383C90.7 385.5 88.8 390.4 87.7 394C85.7 400.2 85.6 403.3 85 512H68L68.3 455.2C68.6 399.9 68.6 398.3 70.8 390.5C72.1 386.1 74.9 379.1 77 375C79.2 370.9 83.3 364.6 86.3 361C89.2 357.4 94.5 352.3 98.1 349.6C101.6 347 107.4 343.3 111 341.5C114.6 339.7 120 337.5 123 336.6C126 335.7 144.3 332.9 163.5 330.4C186.1 327.6 199.3 325.4 200.8 324.5C202 323.7 203.4 321.9 204 320.5C204.5 319.1 205 312.4 205 305.5C205 293.7 204.9 292.9 202.8 291.5C200.9 290.2 195.2 290 133 290L127.9 284.5L128 193L125.1 188.8C123.6 186.4 121.7 182.9 121.1 181C120.5 179.1 119.9 175 119.9 172C119.8 169 120.1 164.9 120.5 163C120.9 161.1 122.1 157.7 123.2 155.5C124.3 153.3 125.8 150.8 126.5 150C127.4 148.9 127.9 142.7 128.3 129C128.6 116.2 129.4 106.9 130.5 102C131.4 97.9001 133.3 91.1001 134.7 87.0001C136.1 82.9001 139.5 75.0001 142.4 69.5001C145.2 64.0001 150 56.1001 153.1 52.0001C156.2 47.9001 161.8 41.4001 165.6 37.6001C169.4 33.8001 175.9 28.2001 180 25.1001C184.1 22.0001 192 17.2001 197.5 14.4001C203 11.5001 210.9 8.10012 215 6.70012C219.1 5.30012 226.8 3.20012 232 2.20012C238.4 0.800115 245.9 0.200115 255 0.100115ZM230 20.5001C226.4 21.4001 221 23.0001 218 24.1001C215 25.2001 208.9 28.0001 204.5 30.3001C200.1 32.6001 193.8 36.5001 190.5 38.9001C187.2 41.4001 182.1 45.6001 179.1 48.4001C176.2 51.2001 171.2 56.9001 168.1 61.0001C165 65.1001 160.4 72.5001 157.9 77.5001C155.3 82.4001 152.3 89.2001 151.2 92.5001C150.1 95.8001 148.5 101.9 147.6 106C146.8 110.1 145.8 118.9 145.4 125.5L144.8 137.5L161 136C252.8 87.0001 280.1 72.3001 280.8 71.7001C281.8 70.8001 282.1 64.8001 282 45.8001V21.0001C278.1 19.4001 272.2 18.6001 266.3 18.0001C260.3 17.5001 254.8 17.1001 254 17.1001C253.2 17.2001 248.9 17.6001 244.5 18.0001C240.1 18.5001 233.6 19.6001 230 20.5001ZM299 74.0001C337.2 117.8 349.5 131.8 350.9 133.3C353.1 135.7 354.6 136.2 360.4 136.8L367.2 137.5C366.2 118.9 365.2 110.1 364.4 106C363.5 101.9 361.9 95.8001 360.8 92.5001C359.7 89.2001 356.7 82.4001 354.1 77.5001C351.6 72.5001 347.5 65.8001 345.1 62.5001C342.6 59.2001 338.4 54.1001 335.6 51.1001C332.8 48.2001 327.1 43.2001 323 40.1001C318.9 37.0001 311.8 32.5001 307.3 30.2001L299.2 25.9001L299 74.0001ZM223.2 123C223.1 123.5 224.7 124.9 226.7 125.9C228.8 127 232.5 129.9 235 132.4L239.5 137H272.5C279.4 130 283.3 126.9 285.5 125.6C287.7 124.4 291 122.8 293 122C294.9 121.3 300.9 120.4 306.3 120.1L316.1 119.5C294.7 95.0001 288 88.0001 287.5 88.1001C286.9 88.1001 272.3 95.8001 255 105.1C237.6 114.4 223.4 122.4 223.2 123ZM187.1 144.1C185.2 146 182.8 149.3 181.7 151.5C180.2 154.3 179.6 157.5 179.6 162C179.5 166.9 180.1 169.6 181.8 173C183.1 175.5 185.2 178.6 186.5 180C187.8 181.4 191 183.6 193.6 184.9C197.1 186.6 200.2 187.3 204.5 187.3C208.3 187.3 212.1 186.6 215 185.3C217.4 184.2 221 181.8 222.8 179.9C224.7 178 226.9 175.1 227.7 173.5C228.6 171.8 229.5 167.8 229.8 164.5C230.2 160 229.8 157.2 228.4 153.5C227.4 150.7 225.4 147.2 224 145.6C222.6 144 219.7 141.5 217.5 140.2C214.3 138.2 211.8 137.6 206 137.3C200.2 137 197.6 137.3 194.5 138.8C192.3 139.8 188.9 142.2 187.1 144.1ZM294.5 140.1C292.8 141 290.1 143.3 288.4 145.1C286.7 147 284.5 150.7 283.5 153.5C282.1 157.2 281.8 160.1 282.1 164.5C282.4 167.8 283.4 171.8 284.2 173.5C285 175.1 287.2 178 289.1 179.9C290.9 181.8 294.5 184.2 297 185.3C299.9 186.6 303.6 187.3 307.5 187.3C311.8 187.3 314.8 186.6 318.3 184.9C320.9 183.6 324.2 181.4 325.5 180C326.7 178.6 328.8 175.5 330.1 173C331.8 169.6 332.4 166.9 332.4 162C332.3 157.5 331.7 154.3 330.3 151.5C329.2 149.3 326.7 146 324.8 144.1C323 142.2 319.7 139.9 317.5 138.9C314.9 137.7 311.3 137.1 307.5 137.1C304.2 137.2 300.6 137.5 299.5 137.9C298.4 138.2 296.1 139.2 294.5 140.1ZM139.6 162C137.5 164.8 136.9 166.6 137 170.5C137 173.8 137.8 176.8 139.2 179.3C140.5 181.4 142.8 184 144.5 185C146.1 186.1 149.7 187.3 152.4 187.7L157.3 188.5C156.3 182.3 155.8 174.5 155.6 167.2L155.1 154C149.7 154 147.1 155 145.3 156.3C143.6 157.5 141.1 160.1 139.6 162ZM241 191C254.2 195.3 258 196.9 258 197.5C258 198 257.1 201.2 256 204.5C254.9 207.8 253.7 211.1 253.5 211.7C253.1 212.7 249.4 211.8 239.7 208.5C232.4 206 225.8 203.2 225 202.4C223.6 201 222.9 201 218 202.6C214.7 203.6 209.4 204.3 205 204.3C200.8 204.3 195 203.5 192 202.6C188.9 201.7 183.9 199.1 180.7 197C177.6 194.8 174.8 193.1 174.5 193.2C174.2 193.4 174.5 200 175.1 208C175.7 216 177 225.9 178.1 230C179.2 234.1 181.8 241.1 183.9 245.5C186 249.9 190.4 256.6 193.7 260.5C196.9 264.3 202.2 269.6 205.5 272.3C208.8 274.9 214.8 278.8 219 281C223.1 283.1 230.1 285.9 234.5 287.2C241.1 289.1 244.8 289.5 256 289.5C267.1 289.5 270.9 289.1 277.5 287.2C281.9 285.9 288.8 283.1 293 281C297.1 278.8 303.1 274.9 306.4 272.3C309.7 269.6 315 264.3 318.3 260.5C321.5 256.6 325.9 249.9 328 245.5C330.2 241.1 332.8 233.9 333.9 229.5C335.1 225.1 336.4 215.2 336.9 207.5C337.5 199.8 337.7 193.4 337.4 193.2C337.2 193.1 334.4 194.8 331.2 197C328.1 199.1 323.2 201.6 320.5 202.4C317.7 203.2 313.4 204.1 311 204.4C308.5 204.7 303.8 204.6 300.5 204C297.2 203.4 291.8 201.7 288.5 200.1C285.2 198.5 280.6 195.4 278.2 193.1C275.9 190.9 272.8 187.1 271.3 184.7C269.9 182.4 267.8 178 266.8 175C265.6 171.5 264.9 166.7 264.9 161.7L265 154H253.3L241 191ZM356.6 167.2C356.3 174.5 355.7 182.3 355.4 184.5L354.8 188.5C362.3 187.3 365.9 186.1 367.5 185C369.2 184 371.5 181.4 372.8 179.3C374.2 176.8 375 173.8 375 170.5C375.1 166.9 374.5 164.5 372.8 162C371.6 160.1 369 157.5 367 156.3C365.1 155 362.1 154 360.4 154H357.3L356.6 167.2ZM145 272.9C177.1 272.9 180.8 272.7 180.3 271.7C179.9 271 177.7 267.7 175.4 264.4C173 261.1 169.5 254.8 167.4 250.4C165.4 246 162.7 238.4 161.4 233.4C160.2 228.5 158.8 220.1 158.4 214.7C157.8 206.8 157.3 205 156.1 205C155.2 205 152.4 204.7 149.9 204.3L145.3 203.7L145 272.9ZM354.1 205C353.1 220 351.8 228.4 350.5 233.4C349.3 238.3 346.6 246 344.6 250.4C342.5 254.8 339 261.1 336.6 264.4C334.3 267.7 332.1 270.9 331.7 271.6C331.2 272.6 334.9 272.9 349 272.9H367V203.9C362.7 204.1 359.8 204.4 357.8 204.6L354.1 205ZM221.8 312.7C221.5 323.1 221.1 324.9 218.7 329.4C217.2 332.1 214.1 335.9 211.8 337.7C209.4 339.5 206.2 341.3 204.7 341.7C202.8 342.2 202 342.9 202.3 343.9C202.5 344.7 208.3 357.9 215.1 373.2L227.5 401H284.5C304.3 356.7 310 343.6 310 343.1C310.1 342.7 308.8 342.1 307.3 341.7C305.8 341.3 302.6 339.5 300.2 337.7C297.6 335.7 294.9 332.3 293.2 328.9C290.8 324.1 290.5 322 290.3 312.1L290 300.9C283.4 303.3 277.7 304.6 273 305.4C268.3 306.3 260.7 306.9 256 306.9C251.3 306.9 243.7 306.3 239 305.4C234.3 304.6 228.6 303.3 226.3 302.5L222.1 301.1L221.8 312.7ZM163.7 377.8C156.2 394.6 150.1 408.7 150.1 409.1C150.1 409.5 161.2 409.8 174.8 409.8C198.3 409.8 199.7 409.9 201.8 411.8C203.1 412.9 204.3 414.6 204.6 415.6C204.9 416.5 203.5 423.7 201.6 431.6C199.7 439.4 198.1 446.3 198.1 446.8C198.1 447.4 206.6 452.1 217.1 457.3C227.5 462.6 236.5 466.7 237 466.6C237.5 466.4 225.8 439 211 405.6C190 358.2 183.7 344.8 182.3 344.8C181.3 344.8 179.8 345.4 178.9 346.1C177.9 346.8 171.1 361.1 163.7 377.8ZM275.2 466.6C275.7 466.7 284.6 462.6 295.1 457.3C305.5 452.1 314.1 447.4 314.1 446.8C314.1 446.3 312.5 439.4 310.5 431.6C308.6 423.7 307.2 416.5 307.5 415.6C307.8 414.6 309.1 412.9 310.3 411.8C312.4 409.9 313.9 409.8 337.3 409.8C350.9 409.8 362.1 409.5 362 409.1C362 408.7 355.9 394.6 348.5 377.8C341 361.1 334.6 347 334.2 346.7C333.9 346.3 332.4 345.7 331 345.3C328.5 344.7 328.1 345.5 301.4 405.5C286.5 439 274.7 466.4 275.2 466.6ZM245.8 442.1C251.2 454.1 255.8 463.9 256.1 463.9C256.3 463.9 261 454.1 266.3 442.1C271.7 430.1 276.1 419.8 276.1 419.1C276.1 418.1 271.4 417.8 256.1 417.8C240.7 417.8 236.1 418.1 236.1 419.1C236.1 419.8 240.4 430.1 245.8 442.1ZM277.3 222.9C277.7 222.8 279.6 226 281.6 229.8C283.5 233.7 285.1 237.1 285.1 237.3C285.1 237.6 282.9 238.8 280.3 240C277.7 241.2 272.6 243 269.1 244.1C265.3 245.2 257.6 246.3 239.1 247.3V230.3L249.8 229.7C256.6 229.2 263 228.2 267.1 226.8C270.6 225.6 274.2 224.2 275.1 223.8C275.9 223.3 276.9 222.9 277.3 222.9Z" fill="#C42A57"/>
</g>
<defs>
<clipPath id="clip0_164_30">
<rect width="376" height="512" fill="white" transform="translate(68)"/>
</clipPath>
</defs>
</svg>
