<svg width="82" height="31" viewBox="0 0 82 31" fill="none" xmlns="http://www.w3.org/2000/svg">
<g clip-path="url(#clip0_12_448)">
<path d="M13.3012 0.5H0V16.9315C12.2174 14.0436 13.9581 4.77386 13.3012 0.5Z" fill="#C42A57"/>
<path d="M9.97592 25.5207C2.98046 23.8279 0.410531 28.1349 0 30.5H18.2276C27.3906 26.3175 24.6729 18.9647 22.1688 15.8112C24.2377 14.5166 24.6729 10.2925 24.6319 8.34233C24.2377 2.66598 19.0486 0.748962 16.5034 0.5C18.4739 3.36308 17.4886 8.71577 17.2424 10.583C17.0453 12.0768 19.336 14.193 19.5823 14.5664C19.8287 14.9398 19.7055 15.4378 19.5823 15.8112C19.4591 16.1846 17.6117 17.056 17.6117 17.056L17.4886 18.5498C17.7349 18.7988 18.2276 19.4461 18.2276 20.0435C18.2276 20.6411 17.5707 20.6245 17.2424 20.5416C18.0305 21.0394 17.7349 21.6618 17.4886 21.9108C16.5034 22.4087 16.257 23.944 16.257 24.6493C15.5674 26.9399 11.7822 26.1847 9.97592 25.5207Z" fill="#C42A57"/>
<path d="M34.6826 8.54624L34.8314 8.31318C35.6032 8.32428 36.2702 8.42416 36.8325 8.61283C37.3948 8.79041 37.8303 9.08451 38.139 9.49515C38.4477 9.89468 38.602 10.4329 38.602 11.1099C38.602 11.798 38.4311 12.3862 38.0893 12.8746C37.7586 13.3629 37.2625 13.7347 36.6009 13.9899C35.9394 14.2452 35.1181 14.3728 34.1368 14.3728H29.192V13.1742L30.73 12.7247L30.4158 13.2075V3.88497L30.7962 4.38439L29.192 3.93491V2.7363L32.6815 2.65306H34.3849C35.1897 2.65306 35.8733 2.7585 36.4356 2.96936C36.9979 3.16913 37.4278 3.48543 37.7255 3.91827C38.0232 4.34 38.172 4.88382 38.172 5.54971C38.172 6.45977 37.8799 7.16451 37.2955 7.66393C36.7222 8.15226 35.8512 8.44636 34.6826 8.54624ZM33.9218 4.33445H32.4169L32.7807 3.96821V7.91364L32.4169 7.58069H33.558C33.9769 7.58069 34.3518 7.53075 34.6826 7.43087C35.0243 7.33098 35.2945 7.15896 35.4929 6.9148C35.6914 6.65954 35.7906 6.31549 35.7906 5.88266C35.7906 5.47202 35.7079 5.15572 35.5425 4.93376C35.3771 4.71179 35.1511 4.55642 34.8645 4.46763C34.5888 4.37884 34.2746 4.33445 33.9218 4.33445ZM33.9218 12.6748C34.3518 12.6748 34.7377 12.6249 35.0795 12.525C35.4212 12.4251 35.6914 12.2475 35.8898 11.9923C36.0883 11.737 36.1875 11.3874 36.1875 10.9435C36.1875 10.5106 36.0993 10.1721 35.9229 9.92798C35.7465 9.67272 35.5205 9.49515 35.2448 9.39526C34.9692 9.29538 34.666 9.24543 34.3353 9.24543H32.4169L32.7807 8.82925V13.0577L32.4169 12.6748H33.9218ZM47.0816 13.1909L46.7674 12.7247L48.1896 13.1742V14.3562L45.2955 14.506L44.9813 12.9079L45.1467 12.9578C44.7057 13.5016 44.2261 13.9067 43.7079 14.1731C43.1897 14.4394 42.655 14.5726 42.1037 14.5726C41.3981 14.5726 40.8138 14.3451 40.3507 13.8901C39.8877 13.435 39.6561 12.7802 39.6561 11.9257C39.6561 11.2931 39.7884 10.7936 40.053 10.4274C40.3287 10.0501 40.7256 9.77815 41.2438 9.61168C41.7619 9.4452 42.3904 9.36197 43.1291 9.36197H44.9317L44.7663 9.54509V8.44636C44.7663 7.92474 44.6395 7.55295 44.3859 7.33098C44.1434 7.10902 43.7851 6.99804 43.311 6.99804C43.0795 6.99804 42.8314 7.02023 42.5668 7.06463C42.3022 7.10902 42.0155 7.17561 41.7068 7.26439L41.9384 7.01468L41.7234 8.36312H40.2846L40.1523 5.9326C40.902 5.71064 41.5855 5.54971 42.203 5.44983C42.8314 5.33884 43.4047 5.28335 43.9229 5.28335C44.9482 5.28335 45.731 5.50532 46.2713 5.94925C46.8115 6.39318 47.0816 7.08127 47.0816 8.01353V13.1909ZM41.988 11.6926C41.988 12.1032 42.0817 12.4084 42.2691 12.6082C42.4676 12.7969 42.7156 12.8912 43.0133 12.8912C43.2889 12.8912 43.5921 12.808 43.9229 12.6415C44.2536 12.4639 44.5679 12.2253 44.8655 11.9257L44.7663 12.3252V10.4274L44.9317 10.5939H43.5094C42.9361 10.5939 42.5392 10.6827 42.3187 10.8602C42.0982 11.0378 41.988 11.3153 41.988 11.6926ZM52.0521 13.0077L51.8867 12.808L53.1601 13.1742V14.3728H48.6453V13.1742L49.9187 12.808L49.7368 13.0077V2.93607L49.8856 3.10254L48.6453 2.75295V1.55434L52.0521 1.42115V13.0077ZM57.3225 13.0077L57.1571 12.808L58.4305 13.1742V14.3728H53.8992V13.1742L55.1726 12.808L55.0072 13.0077V6.93145L55.156 7.08127L53.8992 6.73168V5.53306L57.3225 5.41653V13.0077ZM56.0987 4.11804C55.6908 4.11804 55.36 4.0015 55.1064 3.76844C54.8639 3.53538 54.7426 3.20243 54.7426 2.7696C54.7426 2.30347 54.8694 1.95942 55.123 1.73745C55.3876 1.50439 55.7183 1.38786 56.1152 1.38786C56.5011 1.38786 56.8208 1.50439 57.0744 1.73745C57.328 1.95942 57.4548 2.29792 57.4548 2.75295C57.4548 3.20798 57.3225 3.55202 57.0579 3.78509C56.8043 4.00705 56.4846 4.11804 56.0987 4.11804ZM59.0622 14.3728V13.1742L60.4349 12.7747L60.1537 13.2075V2.85283L60.3356 3.11919L59.0622 2.75295V1.55434L62.469 1.42115V9.07896L62.0886 8.72937H64.2055L63.6432 8.99572L65.1316 6.71503L65.297 6.96474L64.1393 6.73168V5.54971L68.1746 5.41653V6.5985L66.7854 6.9148L67.4138 6.5652L65.3797 9.59503L65.4128 8.99572L67.5957 13.1409L67.2484 12.8413L68.5053 13.1909V14.3728H65.8262L63.7259 10.1277L64.0566 10.2776H62.0886L62.469 10.1277V13.2075L62.2375 12.758L63.5274 13.1742V14.3728H59.0622ZM76.2328 13.1909L75.9186 12.7247L77.3408 13.1742V14.3562L74.4467 14.506L74.1325 12.9079L74.2979 12.9578C73.8569 13.5016 73.3773 13.9067 72.8591 14.1731C72.3409 14.4394 71.8062 14.5726 71.2549 14.5726C70.5493 14.5726 69.965 14.3451 69.5019 13.8901C69.0388 13.435 68.8073 12.7802 68.8073 11.9257C68.8073 11.2931 68.9396 10.7936 69.2042 10.4274C69.4798 10.0501 69.8768 9.77815 70.3949 9.61168C70.9131 9.4452 71.5416 9.36197 72.2803 9.36197H74.0829L73.9175 9.54509V8.44636C73.9175 7.92474 73.7907 7.55295 73.5371 7.33098C73.2946 7.10902 72.9363 6.99804 72.4622 6.99804C72.2306 6.99804 71.9826 7.02023 71.718 7.06463C71.4534 7.10902 71.1667 7.17561 70.858 7.26439L71.0895 7.01468L70.8745 8.36312H69.4357L69.3034 5.9326C70.0532 5.71064 70.7367 5.54971 71.3541 5.44983C71.9826 5.33884 72.5559 5.28335 73.0741 5.28335C74.0994 5.28335 74.8822 5.50532 75.4224 5.94925C75.9627 6.39318 76.2328 7.08127 76.2328 8.01353V13.1909ZM71.1391 11.6926C71.1391 12.1032 71.2329 12.4084 71.4203 12.6082C71.6187 12.7969 71.8668 12.8912 72.1645 12.8912C72.4401 12.8912 72.7433 12.808 73.0741 12.6415C73.4048 12.4639 73.719 12.2253 74.0167 11.9257L73.9175 12.3252V10.4274L74.0829 10.5939H72.6606C72.0873 10.5939 71.6904 10.6827 71.4699 10.8602C71.2494 11.0378 71.1391 11.3153 71.1391 11.6926ZM35.741 28.9324C35.2559 27.8225 34.7652 26.7183 34.2691 25.6195C33.773 24.5097 33.2879 23.3888 32.8138 22.2568C32.6594 21.9016 32.5051 21.5465 32.3507 21.1913C32.2074 20.8251 32.0641 20.4588 31.9207 20.0926C31.7884 19.7264 31.6506 19.3601 31.5073 18.9939C31.5073 19.116 31.5018 19.238 31.4908 19.3601C31.4908 19.4822 31.4908 19.6043 31.4908 19.7264C31.4797 20.1259 31.4632 20.6087 31.4411 21.1747C31.4301 21.7296 31.4136 22.3289 31.3915 22.9726C31.3695 23.6052 31.3529 24.2434 31.3419 24.8871C31.3309 25.5197 31.3199 26.119 31.3088 26.685C31.2978 26.9291 31.2868 27.1733 31.2758 27.4175C31.2758 27.6616 31.2647 27.8891 31.2427 28.1C31.4522 28.0889 31.6561 28.0778 31.8546 28.0667C32.0641 28.0556 32.2735 28.0445 32.483 28.0334V28.7659H29.3243V28.2165C29.6661 28.2054 29.9142 28.1333 30.0685 28.0001C30.2339 27.8558 30.3386 27.6672 30.3827 27.4341C30.4268 27.201 30.4544 26.9513 30.4654 26.685L30.7796 19.0938C30.7907 18.8718 30.7962 18.6498 30.7962 18.4279C30.8072 18.2059 30.8182 17.9895 30.8292 17.7786C30.6308 17.7897 30.4323 17.8008 30.2339 17.8119C30.0354 17.8119 29.837 17.8175 29.6385 17.8286V17.1127H32.1688L35.0133 23.7217C35.1566 24.0547 35.2945 24.3876 35.4268 24.7206C35.5701 25.0535 35.7134 25.3865 35.8567 25.7194C36.0111 26.0524 36.1599 26.3909 36.3033 26.7349H36.3363C36.4576 26.4353 36.6009 26.0801 36.7663 25.6695C36.9317 25.2477 37.0695 24.8871 37.1798 24.5874C37.6649 23.3666 38.1665 22.1458 38.6847 20.925C39.2139 19.6931 39.7321 18.4223 40.2393 17.1127H42.6869V17.6621C42.4112 17.651 42.1852 17.7065 42.0088 17.8286C41.8324 17.9395 41.7056 18.1282 41.6284 18.3946C41.5513 18.6609 41.5237 19.0216 41.5458 19.4767L41.9757 27.0512C41.9978 27.2399 42.0088 27.423 42.0088 27.6006C42.0088 27.7782 42.0088 27.9391 42.0088 28.0834C42.2073 28.0723 42.4057 28.0667 42.6042 28.0667C42.8137 28.0556 43.0176 28.0445 43.2161 28.0334V28.7659H39.5116V28.2165C39.8534 28.2054 40.107 28.1222 40.2723 27.9668C40.4377 27.8114 40.5369 27.5895 40.57 27.3009C40.6141 27.0124 40.6251 26.6572 40.6031 26.2355L40.2723 20.7419C40.2613 20.5643 40.2503 20.3867 40.2393 20.2091C40.2282 20.0316 40.2172 19.854 40.2062 19.6764C40.1952 19.4988 40.1841 19.3213 40.1731 19.1437C40.14 19.2214 40.1014 19.3046 40.0573 19.3934C40.0243 19.4822 39.9912 19.5765 39.9581 19.6764L36.2371 28.9324H35.741ZM49.533 28.7659C49.4999 28.5772 49.4779 28.4108 49.4668 28.2665C49.4558 28.1222 49.4393 27.9724 49.4172 27.817C49.0424 28.1943 48.6344 28.494 48.1934 28.716C47.7635 28.9268 47.3059 29.0323 46.8208 29.0323C45.9829 29.0323 45.36 28.8436 44.952 28.4662C44.5441 28.0778 44.3401 27.6061 44.3401 27.0512C44.3401 26.5407 44.4945 26.1023 44.8032 25.7361C45.1229 25.3587 45.5308 25.0535 46.027 24.8205C46.5341 24.5763 47.0799 24.3987 47.6642 24.2877C48.2596 24.1657 48.8329 24.1102 49.3842 24.1213V23.0891C49.3842 22.7007 49.3511 22.3345 49.2849 21.9904C49.2188 21.6464 49.0755 21.3634 48.8549 21.1414C48.6344 20.9194 48.2816 20.8029 47.7965 20.7918C47.4768 20.7807 47.146 20.8417 46.8043 20.9749C46.4735 21.1081 46.2309 21.3356 46.0766 21.6575C46.1648 21.7462 46.2199 21.8517 46.242 21.9738C46.275 22.0847 46.2916 22.1902 46.2916 22.2901C46.2916 22.4232 46.2365 22.5786 46.1262 22.7562C46.016 22.9227 45.823 23.0004 45.5474 22.9893C45.3159 22.9893 45.1395 22.9116 45.0182 22.7562C44.8969 22.5897 44.8363 22.3955 44.8363 22.1735C44.8363 21.7962 44.9741 21.4577 45.2497 21.158C45.5364 20.8584 45.9278 20.6198 46.4239 20.4422C46.92 20.2646 47.4823 20.1758 48.1108 20.1758C49.0369 20.1758 49.7204 20.4256 50.1614 20.925C50.6024 21.4133 50.8174 22.1902 50.8064 23.2556C50.8064 23.6662 50.8064 24.0824 50.8064 24.5042C50.8064 24.9148 50.8009 25.331 50.7899 25.7527C50.7899 26.1634 50.7899 26.5795 50.7899 27.0013C50.7899 27.1789 50.7844 27.3564 50.7733 27.534C50.7623 27.7116 50.7458 27.9113 50.7237 28.1333C50.9222 28.1222 51.1151 28.1111 51.3025 28.1C51.501 28.0889 51.6995 28.0778 51.8979 28.0667V28.7659H49.533ZM49.3842 24.6873C49.0093 24.6984 48.6124 24.7483 48.1934 24.8371C47.7855 24.9148 47.4051 25.0369 47.0523 25.2034C46.7105 25.3698 46.4294 25.5918 46.2089 25.8693C45.9994 26.1356 45.9002 26.463 45.9112 26.8514C45.9333 27.2621 46.0656 27.5728 46.3081 27.7837C46.5617 27.9835 46.8594 28.0834 47.2012 28.0834C47.6532 28.0834 48.0446 28.0001 48.3754 27.8336C48.7171 27.6561 49.0534 27.4119 49.3842 27.1012C49.3731 26.9791 49.3676 26.8459 49.3676 26.7016C49.3676 26.5573 49.3676 26.4075 49.3676 26.2521C49.3676 26.1967 49.3676 26.0191 49.3676 25.7194C49.3786 25.4198 49.3842 25.0757 49.3842 24.6873ZM53.0328 28.7659V28.2665C53.3746 28.2665 53.6116 28.1832 53.7439 28.0168C53.8762 27.8392 53.9534 27.6006 53.9755 27.3009C53.9975 26.9902 54.0085 26.635 54.0085 26.2355L54.0251 22.4399C54.0251 22.2623 54.0251 22.0847 54.0251 21.9072C54.0361 21.7296 54.0582 21.5465 54.0912 21.3578C53.8928 21.3689 53.6943 21.38 53.4959 21.3911C53.3084 21.4022 53.1155 21.4133 52.9171 21.4244V20.7252C53.4022 20.7252 53.766 20.703 54.0085 20.6586C54.2621 20.6142 54.4496 20.5587 54.5708 20.4921C54.6921 20.4256 54.7913 20.3534 54.8685 20.2757H55.3481C55.3591 20.3534 55.3647 20.4422 55.3647 20.5421C55.3757 20.642 55.3867 20.753 55.3977 20.875C55.4087 20.9971 55.4143 21.1358 55.4143 21.2912C55.6568 21.0803 55.9214 20.8917 56.2081 20.7252C56.5058 20.5587 56.8145 20.4256 57.1342 20.3257C57.465 20.2258 57.7902 20.1758 58.1099 20.1758C59.0691 20.1758 59.7692 20.481 60.2102 21.0914C60.6512 21.6908 60.8717 22.6286 60.8717 23.9049V27.0013C60.8717 27.2232 60.8662 27.423 60.8552 27.6006C60.8552 27.7671 60.8387 27.9446 60.8056 28.1333C60.982 28.1222 61.1529 28.1167 61.3183 28.1167C61.4947 28.1056 61.6711 28.0945 61.8475 28.0834V28.7659H58.4738V28.2665C58.8155 28.2665 59.0526 28.1832 59.1849 28.0168C59.3172 27.8392 59.3944 27.6006 59.4164 27.3009C59.4385 26.9902 59.4495 26.635 59.4495 26.2355V23.9049C59.4385 22.9504 59.2786 22.229 58.9699 21.7407C58.6722 21.2524 58.1981 21.0138 57.5476 21.0249C57.1507 21.036 56.7593 21.1414 56.3735 21.3412C55.9986 21.5409 55.6844 21.7962 55.4308 22.1069C55.4418 22.1957 55.4473 22.2956 55.4473 22.4066C55.4473 22.5176 55.4473 22.6341 55.4473 22.7562L55.4308 27.0013C55.4308 27.2232 55.4253 27.423 55.4143 27.6006C55.4143 27.7671 55.3977 27.9446 55.3647 28.1333C55.5411 28.1222 55.7119 28.1167 55.8773 28.1167C56.0537 28.1056 56.2301 28.0945 56.4065 28.0834V28.7659H53.0328ZM67.1136 29.0323C66.3749 29.0323 65.6913 28.8658 65.0629 28.5328C64.4455 28.1888 63.9493 27.7005 63.5745 27.0679C63.2106 26.4242 63.0287 25.6528 63.0287 24.7539C63.0287 24.1768 63.1335 23.6163 63.3429 23.0725C63.5524 22.5287 63.8446 22.0403 64.2194 21.6075C64.6053 21.1636 65.0629 20.814 65.5921 20.5587C66.1213 20.3035 66.7056 20.1758 67.3451 20.1758C67.9625 20.1758 68.4972 20.2702 68.9493 20.4588C69.4123 20.6475 69.7706 20.8972 70.0242 21.208C70.2778 21.5187 70.4046 21.8572 70.4046 22.2235C70.4046 22.4676 70.3384 22.6785 70.2061 22.8561C70.0738 23.0225 69.8809 23.1058 69.6273 23.1058C69.3517 23.1169 69.1532 23.0336 69.0319 22.8561C68.9217 22.6674 68.8666 22.5009 68.8666 22.3566C68.8666 22.2457 68.8831 22.1347 68.9162 22.0237C68.9493 21.9016 69.0154 21.7906 69.1146 21.6908C69.0264 21.4244 68.8721 21.2302 68.6516 21.1081C68.4311 20.9749 68.1995 20.8917 67.957 20.8584C67.7255 20.814 67.5325 20.7918 67.3782 20.7918C66.6285 20.7918 65.9945 21.097 65.4763 21.7074C64.9692 22.3067 64.7156 23.1835 64.7156 24.3377C64.7156 25.0813 64.8313 25.7416 65.0629 26.3187C65.3054 26.8958 65.6417 27.3509 66.0717 27.6838C66.5017 28.0057 66.9978 28.1666 67.5601 28.1666C68.0783 28.1666 68.5744 28.0279 69.0485 27.7504C69.5226 27.473 69.8919 27.1345 70.1565 26.7349L70.5865 27.0679C70.2998 27.534 69.9526 27.9113 69.5446 28.1999C69.1477 28.4884 68.7343 28.6993 68.3043 28.8325C67.8853 28.9657 67.4884 29.0323 67.1136 29.0323ZM77.1887 28.2665C77.5305 28.2665 77.7675 28.1832 77.8998 28.0168C78.0321 27.8392 78.1093 27.6006 78.1314 27.3009C78.1534 26.9902 78.1644 26.635 78.1644 26.2355V23.9049C78.1644 22.9504 78.0101 22.2346 77.7014 21.7573C77.4037 21.2801 76.9296 21.0471 76.2791 21.0582C75.8712 21.0693 75.4688 21.1691 75.0719 21.3578C74.686 21.5465 74.3718 21.7906 74.1292 22.0903V27.0013C74.1292 27.2232 74.1237 27.423 74.1127 27.6006C74.1017 27.7671 74.0796 27.9446 74.0465 28.1333C74.2229 28.1222 74.3938 28.1167 74.5592 28.1167C74.7356 28.1056 74.912 28.0945 75.0884 28.0834V28.7659H71.7147V28.2665C72.0565 28.2665 72.2935 28.1832 72.4258 28.0168C72.5581 27.8392 72.6353 27.6006 72.6573 27.3009C72.6904 26.9902 72.707 26.635 72.707 26.2355V18.3613C72.707 18.1837 72.707 18.0172 72.707 17.8619C72.718 17.6954 72.7345 17.5012 72.7566 17.2792C72.5581 17.2903 72.3597 17.3014 72.1612 17.3125C71.9738 17.3236 71.7808 17.3347 71.5824 17.3458V16.6466C72.0675 16.6466 72.4424 16.6244 72.707 16.58C72.9826 16.5356 73.1866 16.4801 73.3189 16.4135C73.4622 16.3469 73.5724 16.2748 73.6496 16.1971H74.1292V21.2746C74.3718 21.0637 74.6419 20.8806 74.9396 20.7252C75.2483 20.5587 75.5625 20.4256 75.8822 20.3257C76.213 20.2258 76.5327 20.1758 76.8414 20.1758C77.8006 20.1758 78.4897 20.481 78.9086 21.0914C79.3386 21.6908 79.5591 22.6286 79.5702 23.9049L79.5867 27.0013C79.5867 27.2232 79.5812 27.423 79.5702 27.6006C79.5702 27.7671 79.5536 27.9446 79.5205 28.1333C79.6969 28.1222 79.8678 28.1167 80.0332 28.1167C80.2096 28.1056 80.386 28.0945 80.5624 28.0834V28.7659H77.1887V28.2665Z" fill="black"/>
</g>
<defs>
<clipPath id="clip0_12_448">
<rect width="82" height="30" fill="white" transform="translate(0 0.5)"/>
</clipPath>
</defs>
</svg>
