<svg width="512" height="512" viewBox="0 0 512 512" fill="none" xmlns="http://www.w3.org/2000/svg">
<g clip-path="url(#clip0_164_22)">
<path fill-rule="evenodd" clip-rule="evenodd" d="M255 16.1002C264.9 16.0002 271.1 16.5002 278.5 18.0002C284 19.1002 292.1 21.2002 296.5 22.7002C300.9 24.1002 308.3 27.2002 313 29.6002C317.7 31.9002 324.2 35.7002 327.5 37.9002C330.8 40.2002 336.4 44.6002 340 47.7002C343.6 50.9002 349.2 56.4002 352.3 60.0002C355.4 63.6002 359.8 69.2002 362.1 72.5002C364.3 75.8002 367.8 81.9002 369.9 86.0002C372 90.1002 375 96.9002 376.5 101C377.9 105.1 380 112.3 381.1 117C382.1 121.7 383.3 131.3 383.6 138.5C384.2 150.8 384.4 151.9 387.9 158.9C391.3 165.9 391.5 167 391.5 175.9C391.5 184.3 391.1 186.2 388.7 191.5C387.1 194.8 384.8 198.8 381.1 203.5L384.2 206.5C385.9 208.1 388.3 211.7 389.6 214.5C391 217.4 392 221.4 392 224C392 228 392.4 228.8 395.6 231C397.6 232.4 401.8 236.2 404.9 239.6C408 242.9 412.2 248.5 414.3 252.1C416.4 255.6 419.3 262.1 423.4 274.5L424.2 363.5L428.7 368.5C431.3 371.3 434.9 376 436.8 379C438.7 382 441.2 386.5 442.2 389C443.3 391.5 445 397 446.1 401.3C447.8 408.3 448 412.7 448 491L443.1 496H69L64 491V450.5C64 418.3 64.3 408.6 65.5 403C66.3 399.1 68 393.4 69.3 390.2C70.6 387.1 73.2 382 75.2 379C77.1 376 80.8 371.2 87.8 363.5L88.5 274.5L91.2 266.5C92.7 262.1 95.6 255.6 97.7 252.1C99.8 248.5 104 242.9 107.1 239.6C110.2 236.2 114.4 232.4 116.4 231C119.6 228.8 120 228 120 224C120 221.4 121 217.4 122.4 214.5C123.7 211.7 126.1 208.1 131 203.5L128.3 200C126.8 198.1 124.5 194 123.1 191C120.9 186.3 120.5 184.1 120.5 175.9C120.5 167 120.7 165.9 124.1 158.9C127.6 151.9 127.8 150.8 128.4 138.5C128.7 131.3 129.9 121.7 130.9 117C132 112.3 134.1 105.1 135.5 101C137 96.9002 139.8 90.3002 141.8 86.5002C143.7 82.6002 147.9 75.7002 151.1 71.0002C154.3 66.3002 161 58.4002 166 53.5002C170.9 48.5002 178.5 42.1002 182.8 39.2002C187 36.2002 193.9 32.1002 198 30.0002C202.1 28.0002 208.9 25.0002 213 23.5002C217.1 22.0002 225.2 19.8002 231 18.5002C238.9 16.7002 244.9 16.1002 255 16.1002ZM235.5 34.1002C232.2 34.6002 225.9 36.3002 221.5 37.7002C217.1 39.1002 210.1 41.9002 206 44.0002C201.9 46.1002 195.3 50.0002 191.5 52.7002C187.6 55.4002 181.3 60.8002 177.5 64.6002C173.6 68.4002 168 74.9002 165.1 79.0002C162.2 83.1002 158.3 89.5002 156.4 93.2002C154.5 97.0002 151.7 103.9 150 108.7C148.4 113.6 146.4 122.2 145.5 128C144.7 133.8 144.1 138.6 144.2 138.7C144.4 138.8 147.6 138.2 151.5 137.3C155.3 136.5 189.3 126.8 227 115.8C264.7 104.8 296.4 96.0002 297.5 96.2002C298.6 96.5002 311.6 105.4 326.5 116C351.3 133.8 354.1 135.5 360.5 137.1C364.3 138.1 367.6 138.8 367.8 138.7C367.9 138.6 367.3 133.8 366.5 128C365.6 122.2 363.6 113.6 362 108.7C360.3 103.9 357.6 97.2002 355.9 93.7002C354.1 90.3002 351.1 85.0002 349 82.0002C347 79.0002 342.6 73.4002 339.4 69.6002C336.2 65.8002 329.4 59.5002 324.5 55.7002C319.4 51.8002 310.7 46.5002 304.5 43.4002C298.4 40.5002 289.9 37.2002 285.5 36.1002C281.1 34.9002 274.3 33.6002 270.5 33.0002C266.6 32.5002 259.7 32.1002 255 32.2002C250.3 32.2002 245.4 32.4002 244 32.6002C242.6 32.9002 238.8 33.5002 235.5 34.1002ZM173.3 148.5L168 150C168 199 168.4 208.8 169.5 215.2C170.3 220.1 172.2 227.3 173.8 231.2C175.3 235.2 178.8 242.1 181.5 246.5C184.2 250.9 189.6 257.7 193.5 261.6C197.3 265.5 203.6 270.8 207.5 273.3C211.3 275.8 217.2 279 220.5 280.5C223.8 281.9 230.1 284.1 234.5 285.3C240.8 287 245.3 287.4 256 287.4C266.7 287.4 271.2 287 277.5 285.3C281.9 284.1 288.2 281.9 291.5 280.5C294.8 279 300.6 275.7 304.5 273.3C308.3 270.8 314.5 265.7 318.1 262.1C321.7 258.5 326.8 252.3 329.3 248.5C331.7 244.6 335 238.8 336.4 235.5C337.9 232.2 340.1 226.1 341.2 222C343.2 215.2 343.4 211.5 343.7 181.2L344 148C305.6 120.8 294 113 293.5 113.1C292.9 113.1 266.8 120.8 235.5 130.1C204.1 139.4 176.1 147.7 173.3 148.5ZM137.2 168.5C136.6 170.7 136 174.1 136 176C136 177.9 136.6 181.3 137.3 183.4C137.9 185.5 140.1 189.1 142 191.3C143.9 193.5 146.7 195.9 148.3 196.6C149.8 197.4 151.2 198 151.5 198C151.8 198 152 188.1 152 176C152 156.7 151.8 154 150.4 154C149.6 154 146.5 156.4 143.7 159.2C140.4 162.5 138 166 137.2 168.5ZM360.5 198C360.8 198 362.2 197.4 363.8 196.6C365.3 195.8 367.7 193.9 369.1 192.3C370.6 190.8 372.5 188 373.4 186.2C374.3 184.5 375.3 181.1 375.6 178.7C376 176.4 375.8 172.5 375.1 170C374.5 167.5 372.3 163.5 370.2 161.1C368.2 158.7 365.3 156.1 363.8 155.4C362.2 154.6 360.8 154 360.5 154C360.2 154 360 163.9 360 176C360 188.1 360.2 198 360.5 198ZM136 224C136 225.9 136.9 227.9 138.5 229.5C140.6 231.6 142 232 146.5 232H152V216C141.9 216 140.5 216.4 138.5 218.5C137.1 219.9 136.1 222.1 136 224ZM360 232C370.1 232 371.5 231.6 373.5 229.5C375.1 228 376 225.8 376 224C376 222.1 375.1 220.1 373.5 218.5C371.4 216.4 370 216 365.5 216H360V232ZM124.1 245.2C122.1 246.8 118.7 250.3 116.6 252.8C114.4 255.4 111.2 260.6 109.4 264.5C107.6 268.3 105.7 274.2 105.1 277.5C104.4 281.4 104 304.7 104 345.2C104 406.3 104 407 106 407C107.1 407 110.8 406 114.3 404.7C117.7 403.5 122.5 401.3 125 399.8C127.5 398.4 132.1 394.7 135.3 391.6C138.4 388.5 142.2 383.9 143.7 381.2C145.2 378.6 147.6 373.6 149 370L151.5 363.5L152 248C140.9 248 138.2 247.4 133.6 245.2L127.7 242.3L124.1 245.2ZM366.2 248H360L360.5 363.5C364.4 373.5 366.8 378.6 368.3 381.2C369.8 383.8 373.6 388.5 376.7 391.6C379.9 394.6 384.7 398.4 387.5 400C390.2 401.6 395.2 403.8 398.5 404.9C401.8 406.1 405.3 407 406.2 407C407.9 407 408 403.3 408 345.2C408 305.5 407.6 281.3 406.9 277.5C406.3 274.2 404.1 267.9 402 263.5C399.5 258.3 396.2 253.4 392.6 249.7C389.5 246.5 386.2 243.6 385.2 243.2C384.067 242.667 381.667 243.333 378 245.2C373.7 247.4 371.1 248 366.2 248ZM168.7 334C169.2 334 178.3 331.7 189 328.9C199.7 326.1 210.2 323.4 212.2 322.9L216 322V296C204.8 290.3 199.5 287.3 197 285.6C194.5 283.9 188.8 278.9 184.2 274.5C179.6 270.1 174.3 264.1 172.5 261.2C170.7 258.3 168.9 256 168.6 256C168.3 256 168 273.5 168 295C168 316.4 168.3 334 168.7 334ZM340.6 260C339 262.5 334.5 267.8 330.6 271.8C326.7 275.8 320.6 281.3 317 283.9C313.4 286.6 307.2 290.4 303.2 292.3L296 296L295.9 321.5C304.9 324.1 315.6 326.9 325.5 329.4C335.4 332 343.6 333.9 343.7 333.7C343.9 333.6 343.9 315.9 343.7 294.5L343.5 255.6L340.6 260ZM232.1 325.4C250.2 348.2 255.7 354.8 256 354.8C256.3 354.8 261.8 348.2 268.2 340.1L279.9 325.4C280 302 279.9 301 278.3 301.4C277.3 301.6 273.6 302.3 270 302.9C266.4 303.4 260.1 303.9 256 303.9C251.9 303.9 245.6 303.4 242 302.9C238.4 302.3 234.8 301.6 233.9 301.3C232.4 300.8 232.2 302.1 232.1 313.1V325.4ZM215.8 361.5L216.1 384.9C237.4 370.7 243.8 366.5 244.1 366.3C244.3 366.1 239.3 359.4 232.8 351.4C226.4 343.4 220.7 337 220.3 337C219.9 337.1 218.7 337.3 217.6 337.6C215.6 338 215.6 338.8 215.8 361.5ZM268.1 366.3C268.3 366.5 274.8 370.7 282.3 375.8L296.1 384.9C296.1 346.4 295.7 337.9 295.1 337.9C294.5 337.9 293.4 337.7 292.7 337.3C291.8 337 287.2 341.8 279.4 351.4C272.9 359.4 267.8 366.1 268.1 366.3ZM172.6 349.8L168.6 350.8C167.3 362.9 165.8 369.8 164.5 373.9C163.2 378 160.4 384.3 158.3 387.9C156.3 391.5 151 398 146.6 402.4C142.2 406.8 135.6 412.1 132.1 414.2C128.5 416.3 122.1 419.1 117.8 420.4C113.6 421.8 106.4 423.2 101.8 423.5C94.5 424.1 93.3 423.9 91.1 422.1C88.6 420.2 88.5 419.6 88.1 404.8L87.6 389.4C84.7 394.8 83 399.8 81.9 403.9C80.3 410.5 80 415.4 80.1 445.7V479.9H140.1C134.9 472.5 132.4 467.7 131.2 464.4C129.9 461.1 128.6 455.3 128.4 451.4C128 447.3 128.4 441.9 129.1 438.4C129.8 435.1 131.8 429.5 133.6 425.9C135.6 421.9 139.2 417.2 142.7 413.8C145.9 410.7 150.9 407 153.8 405.6C156.7 404.1 161.7 402.2 164.8 401.4C168 400.6 171.8 399.9 173.3 399.9H176.1V415.9C168.7 416.8 164.5 418.1 162.1 419.2C159.6 420.4 155.8 423.2 153.5 425.4C151.3 427.6 148.4 431.7 147.1 434.4C145.1 438.5 144.7 441 144.7 447.9C144.7 454.6 145.1 457.4 146.9 460.9C148.1 463.4 150.3 467 151.9 468.9C153.5 470.8 157.6 474 161.2 475.9L167.6 479.4H344.6C352.3 475.3 355.9 473 357.6 471.7C359.2 470.3 362.1 466.3 364 462.8C367.2 456.9 367.5 455.7 367.5 447.9C367.5 440.1 367.2 438.9 364 433C362.1 429.5 359 425.3 357.1 423.7C355.1 422.2 351.8 420 349.6 419C347.4 418 343.4 416.8 340.8 416.5L336.1 415.9V399.9C340.3 399.9 344.2 400.6 347.3 401.4C350.5 402.2 355.4 404.1 358.3 405.6C361.2 407 366.2 410.7 369.4 413.8C372.9 417.2 376.5 421.9 378.5 425.9C380.3 429.5 382.3 435.1 383 438.4C383.8 441.9 384.1 447.3 383.8 451.4C383.5 455.3 382.2 461.1 381 464.4C379.7 467.7 377.2 472.5 375.4 475.2L372.1 479.9H432.1C432.1 415.4 431.9 410.5 430.2 403.9C429.2 399.8 427.5 394.8 426.4 392.9L424.6 389.4C423.6 419.6 423.5 420.2 421.1 422.1C418.8 423.9 417.7 424.1 410.3 423.5C405.8 423.2 398.6 421.8 394.3 420.4C390.1 419.1 383.6 416.3 380.1 414.2C376.5 412.1 370 406.8 365.6 402.4C361.2 398 355.8 391.5 353.8 387.9C351.7 384.3 348.9 378 347.6 373.9C346.3 369.8 344.8 362.9 344.4 358.6L343.6 350.8C335.8 348.7 329.3 346.9 324.1 345.5C318.8 344.1 314 342.9 313.3 342.9C312.3 342.9 312.1 349.5 312.1 372.4C312.1 388.6 311.7 402.6 311.3 403.6C310.9 404.5 309.3 405.8 307.8 406.6C306.3 407.3 304.3 407.9 303.3 407.9C302.4 407.9 291.3 401 278.8 392.7L256.1 377.4C217.8 403.1 209.7 407.9 207.8 407.9C206.2 407.9 204 406.9 202.6 405.4L200.1 402.9C200.1 349.5 199.8 342.9 198.8 343C198.1 343 192.8 344.3 187.1 345.9C181.3 347.4 174.8 349.2 172.6 349.8ZM207.6 168C209.8 167.9 213.8 168.7 216.5 169.6C219.767 170.8 222.767 172.934 225.5 176C227.7 178.5 230.1 182.3 230.8 184.5C231.5 186.6 232 189.2 232 190.2C232.1 191.7 231 191.9 224.3 191.9C216.6 191.9 216.6 191.9 215.1 188.6C214.2 186.8 212.4 185 210.8 184.4C209 183.733 207.167 183.733 205.3 184.4C203.8 185 201.9 186.8 201.1 188.6C199.6 191.9 199.6 191.9 191.8 191.9C185.1 191.9 184.1 191.7 184.1 190.2C184.1 189.2 184.6 186.6 185.3 184.4C186 182 188.5 178.4 191.5 175.4C194.3 172.6 198.1 169.8 200.1 169.2C202 168.6 205.4 168.1 207.6 168ZM303.6 168C305.8 167.9 309.8 168.7 312.5 169.6C315.767 170.8 318.767 172.934 321.5 176C323.7 178.5 326.1 182.3 326.8 184.5C327.5 186.6 328 189.2 328 190.2C328.1 191.7 327 191.9 320.3 191.9C312.6 191.9 312.6 191.9 311.1 188.6C310.2 186.8 308.4 185 306.8 184.4C305 183.733 303.167 183.733 301.3 184.4C299.8 185 297.9 186.8 297.1 188.6C295.6 191.9 295.6 191.9 287.8 191.9C281.1 191.9 280.1 191.7 280.1 190.2C280.1 189.2 280.6 186.6 281.3 184.4C282 182 284.5 178.4 287.5 175.4C290.3 172.6 294.1 169.8 296.1 169.2C298 168.6 301.4 168.1 303.6 168ZM239.8 239.9C247.6 240 247.6 240 249.1 243.2C249.9 245 251.8 246.8 253.3 247.4C255.167 248.067 257 248.067 258.8 247.4C260.4 246.8 262.2 245 263.1 243.2C264.6 240 264.6 240 272.3 239.9C279 239.9 280.1 240.1 280 241.7C280 242.6 279.5 245.2 278.8 247.4C278.1 249.5 275.7 253.3 273.5 255.9C270.767 258.9 267.767 261 264.5 262.2C261.8 263.1 258 263.9 256.1 263.9C254.1 263.9 250.8 263.3 248.6 262.7C246.1 261.9 242.6 259.5 239.5 256.4C236.5 253.4 234 249.9 233.3 247.4C232.6 245.2 232.1 242.6 232.1 241.7C232.1 240.1 233.1 239.9 239.8 239.9Z" fill="#C42A57"/>
</g>
<defs>
<clipPath id="clip0_164_22">
<rect width="384" height="480" fill="white" transform="translate(64 16)"/>
</clipPath>
</defs>
</svg>
